<svg width="124" height="78" viewBox="0 0 124 78" fill="none" xmlns="http://www.w3.org/2000/svg">
<path d="M88.2735 26.1613C86.6635 27.1413 85.2235 28.0413 83.7635 28.9113C68.7135 37.9413 52.8135 45.1613 36.3035 51.0613C27.3035 54.2813 18.1735 57.1113 8.96346 59.6613C5.36346 60.6513 2.64346 62.7413 1.01347 66.1313C0.17347 67.8713 -0.186531 69.7213 0.0934677 71.6713C0.513466 74.6713 2.53346 76.8413 5.51347 77.4713C7.27347 77.8413 9.02346 77.7313 10.7735 77.3613C23.1435 74.7513 35.0235 70.6313 46.5035 65.3913C65.3635 56.7713 82.5735 45.5913 98.1135 31.8513C98.4135 31.5913 98.7135 31.3213 99.0135 31.0613C99.0635 31.0213 99.1335 31.0013 99.2335 30.9413C100.603 31.4113 102.013 31.9213 103.433 32.3813C106.543 33.3913 109.713 34.1613 112.993 34.3813C115.693 34.5613 118.323 34.3013 120.813 33.1713C121.323 32.9413 121.833 32.6613 122.283 32.3313C123.353 31.5513 123.653 30.2813 123.063 29.2413C122.483 28.2313 121.343 27.8613 120.103 28.4013C118.003 29.3313 115.813 29.7113 113.563 29.4013C111.953 29.1813 110.353 28.7913 108.803 28.3113C107.223 27.8213 105.703 27.1113 103.973 26.4313C104.413 25.9913 104.743 25.6813 105.043 25.3513C105.543 24.8113 106.083 24.3113 106.503 23.7213C107.613 22.1413 107.643 20.2413 106.633 18.8613C105.613 17.4713 103.673 16.8313 101.883 17.3913C101.163 17.6213 100.473 18.0013 99.8435 18.4113C98.2835 19.4413 96.7735 20.5313 95.1935 21.6313C94.8635 21.4613 94.5535 21.2913 94.2335 21.1213C91.1235 19.5313 88.0435 17.8613 84.8835 16.3713C79.6335 13.8913 74.1135 12.3513 68.2935 11.8713C63.4135 11.4613 58.5935 10.5313 53.7935 9.56127C43.4735 7.48127 33.3135 4.75127 23.1135 2.17127C20.2435 1.44127 17.3435 0.821262 14.4535 0.161262C14.0035 0.0612618 13.5335 0.0112734 13.0635 0.00127337C11.8035 -0.0287266 10.7635 0.471268 10.0635 1.51127C7.67346 5.05127 6.74346 8.87126 7.91346 13.1013C8.22346 14.2213 8.84346 14.9513 9.89346 15.4413C13.8535 17.3013 17.9735 18.7313 22.1335 20.0513C30.1135 22.5713 38.2235 24.5913 46.4735 26.0013C50.9735 26.7713 55.5035 27.3413 60.0835 27.3413C61.7735 27.3413 63.4735 27.1513 65.1635 27.0513C65.8935 27.0113 66.3035 26.6013 66.4935 25.9113C66.8935 24.4213 67.4635 23.0113 68.2335 21.6713C68.7535 20.7813 69.4835 20.1213 70.3935 19.6613C71.3635 19.1713 72.3535 19.0213 73.3835 19.4313C75.2635 20.1913 77.1735 20.8913 79.0235 21.7313C81.8735 23.0213 84.6935 24.4013 87.5135 25.7413C87.7135 25.8413 87.9135 25.9613 88.2635 26.1613H88.2735ZM117.293 30.1613C116.853 30.1813 116.413 30.2013 115.963 30.2213C115.963 30.2013 115.963 30.1813 115.963 30.1613H117.293C117.773 29.7613 118.353 29.6913 118.943 29.6813C119.413 29.4513 119.873 29.2013 120.353 29.0113C121.313 28.6313 122.113 28.8713 122.523 29.6213C122.913 30.3313 122.703 31.1313 121.963 31.7413C121.763 31.9113 121.533 32.0713 121.293 32.1813C120.603 32.5013 119.913 32.8413 119.183 33.0813C116.623 33.9213 114.003 33.8913 111.373 33.5613C107.653 33.0913 104.093 31.9913 100.593 30.6913C100.363 30.6013 100.143 30.4813 99.8335 30.3413C100.303 29.9713 100.613 30.2713 100.913 30.3813C104.053 31.5113 107.233 32.4713 110.543 32.9613C112.333 33.2213 114.123 33.3613 115.783 33.2013C114.143 33.0213 112.353 32.8413 110.583 32.6213C109.863 32.5313 109.003 32.5513 108.473 32.1613C107.503 31.4313 106.373 31.2413 105.303 30.8913C103.893 30.4413 102.763 29.5913 101.463 28.8013C102.193 28.1113 102.863 27.4813 103.513 26.8613C103.903 27.0313 104.203 27.1513 104.503 27.3013C105.613 27.8713 106.673 28.5513 107.823 29.0013C109.293 29.5713 110.843 29.9613 112.323 30.4213C112.303 30.4413 112.243 30.5013 112.173 30.5613C113.713 30.9513 115.293 31.0113 116.803 30.7313C116.643 30.6713 116.503 30.6213 116.453 30.6013C117.043 30.4313 117.693 30.2413 118.343 30.0513C117.993 30.0913 117.643 30.1213 117.293 30.1613ZM81.1335 19.6713C81.7535 19.7513 82.2535 20.0613 82.7835 20.3113L82.6735 20.5313C82.1635 20.2413 81.6535 19.9413 81.1435 19.6513C80.6735 19.4513 80.1935 19.2613 79.7235 19.0613C79.1835 18.8713 78.6335 18.6713 78.0935 18.4813C77.4435 18.3413 76.7835 18.2013 76.1335 18.0613L76.1435 18.0413C76.5435 18.2413 76.9335 18.4613 77.3435 18.6313C77.9835 18.9113 78.6435 19.1513 79.2835 19.4313C79.9235 19.7113 80.5535 20.0113 81.1835 20.3013C80.9635 20.4013 80.8235 20.3413 80.6735 20.3013C78.0735 19.3813 75.4735 18.4613 72.8735 17.5413C72.5935 17.4413 72.2935 17.3713 72.0235 17.2413C71.5635 17.0213 71.1335 16.7313 71.1035 16.1613C71.0735 15.5513 71.4635 15.1813 71.9435 14.9013C72.1935 14.7513 72.4935 14.5913 72.7735 14.5713C73.4935 14.5313 74.2335 14.5013 74.9535 14.5813C75.7335 14.6713 76.4935 14.8913 77.2635 15.0613C76.1235 14.4913 74.9035 14.2113 73.6535 14.1513C72.8835 14.1213 72.1235 14.3013 71.4835 14.7813C70.4135 15.5913 70.4535 16.7913 71.6135 17.4613C72.0635 17.7213 72.5835 17.8913 73.0935 18.0413C75.8735 18.8813 78.5935 19.8613 81.2035 21.1413C83.7435 22.3813 86.2435 23.7213 88.7535 25.0213C88.9435 25.1213 89.1135 25.2513 89.3435 25.3913C88.8735 25.8413 88.5335 25.4813 88.2135 25.3213C84.6835 23.6813 81.1535 22.0213 77.6235 20.3713C77.1735 20.1613 76.7035 19.9713 76.2435 19.7913C75.7535 19.5913 75.2535 19.4013 74.7535 19.2113C74.2835 19.0413 73.8235 18.8413 73.3435 18.7213C72.8335 18.5913 72.3035 18.5413 71.7735 18.4613C71.6535 17.6613 71.0535 18.2513 70.7135 18.0813C70.5935 18.0213 70.4835 17.9513 70.3635 17.9013C69.6035 17.6113 69.0735 17.8313 68.5935 18.6013C68.7535 18.6513 68.9135 18.7013 69.0235 18.7313C68.5135 19.3913 68.0135 20.0113 67.5435 20.6513C67.4535 20.7713 67.4235 20.9513 67.3735 21.1013C67.9735 21.2713 67.5035 21.5613 67.4235 21.7513C66.9435 22.9913 66.3835 24.2013 65.9535 25.4513C65.7435 26.0813 65.4535 26.3813 64.7835 26.4513C62.1935 26.7413 59.5935 26.7413 56.9935 26.5713C52.6635 26.2913 48.3835 25.6813 44.1235 24.8813C34.7135 23.1113 25.4835 20.7113 16.4835 17.4413C14.2635 16.6313 12.1235 15.6313 9.94347 14.7113C9.25346 14.4213 8.78346 13.9213 8.64346 13.1813C8.43346 12.1113 8.17346 11.0313 8.10346 9.94128C7.92346 7.14128 8.86346 4.63127 10.3235 2.29127C11.2135 0.861267 12.4435 0.381273 14.0835 0.751273C15.1735 1.00127 16.2035 1.44127 17.2635 1.76127C20.7735 2.80127 24.2535 3.95127 27.7835 4.89127C39.1735 7.93127 50.6335 10.6613 62.3435 12.1813C64.6435 12.4813 66.9435 12.9213 69.2835 12.6813C69.4835 12.6613 69.6835 12.6813 69.8835 12.7013C72.7735 13.0213 75.6035 13.6113 78.3635 14.5113C83.9035 16.3113 89.0435 18.9913 94.1035 21.8213C94.2035 21.8813 94.2735 21.9913 94.3935 22.1313C93.7635 22.5513 93.1435 22.9013 92.6135 23.3413C91.9635 23.8813 91.4035 23.8813 90.6435 23.4813C87.3635 21.7813 84.0035 20.2213 80.5235 18.9613C80.1235 18.8113 79.6935 18.7413 79.2835 18.6313C79.4235 18.7713 79.5635 18.9113 79.7035 19.0513C80.1735 19.2513 80.6535 19.4413 81.1235 19.6413L81.1335 19.6713ZM45.0935 8.51127C44.7635 8.46127 44.4335 8.42126 44.1135 8.35126C42.5235 8.00126 40.9335 7.65126 39.3535 7.27126C33.6035 5.90126 27.8235 4.63127 22.1635 2.89127C21.8735 2.80127 21.5835 2.70126 21.3035 2.60126C21.5635 2.50126 21.7835 2.52128 22.0035 2.58128C29.4435 4.45128 36.8935 6.31128 44.3335 8.19128C44.5935 8.26128 44.8335 8.42127 45.0835 8.53127C45.6235 8.58127 46.1635 8.64128 46.7035 8.69128C46.6935 8.77128 46.6735 8.85127 46.6635 8.93127C46.1435 8.79127 45.6235 8.65126 45.1035 8.52126L45.0935 8.51127ZM7.78346 77.1413C7.02346 77.0413 6.25346 77.0013 5.51347 76.8413C2.94347 76.2913 1.17346 74.4413 0.743462 71.9213C0.493462 70.4813 0.593468 69.0613 1.06347 67.6813C2.39347 63.7713 5.15347 61.3713 9.08347 60.2813C19.9935 57.2513 30.7835 53.8513 41.3935 49.8613C59.0735 43.2213 75.9435 34.9813 91.7735 24.6413C94.6235 22.7813 97.4035 20.8413 100.203 18.9113C101.253 18.1913 102.353 17.7313 103.653 17.8513C105.913 18.0613 107.343 20.2113 106.533 22.3313C106.283 22.9913 105.813 23.6013 105.363 24.1613C104.953 24.6813 104.433 25.1113 103.953 25.5813C90.0835 38.9913 74.5835 50.1513 57.5735 59.2213C43.5235 66.7213 28.8335 72.5613 13.2935 76.1613C11.4835 76.5813 9.67346 77.0713 7.78346 77.1313V77.1413ZM87.0435 22.3113C87.0035 22.3813 86.9635 22.4413 86.9135 22.5113C85.7535 21.9513 84.5935 21.3913 83.4335 20.8213C83.4635 20.7613 83.4935 20.6913 83.5235 20.6313C84.6935 21.1913 85.8635 21.7513 87.0435 22.3013V22.3113ZM86.9635 23.4413C87.8735 23.5413 89.5935 24.4313 89.9635 25.0113C88.9635 24.4913 87.9635 23.9713 86.9635 23.4413ZM83.0835 21.4113C84.1535 21.7513 85.1235 22.1813 86.0335 22.7013C86.0035 22.7613 85.9735 22.8213 85.9335 22.8813C84.9835 22.3913 84.0335 21.9013 83.0735 21.4113H83.0835Z" fill="black"/>
<path d="M79.3041 18.6611C79.7141 18.7712 80.1441 18.8412 80.5441 18.9912C84.0241 20.2512 87.3741 21.8112 90.6641 23.5112C91.4241 23.9112 91.9841 23.9012 92.6341 23.3712C93.1641 22.9312 93.7841 22.5812 94.4141 22.1611C94.2941 22.0312 94.2241 21.9112 94.1241 21.8512C89.0641 19.0212 83.9241 16.3512 78.3841 14.5412C75.6241 13.6412 72.7941 13.0412 69.9041 12.7312C69.7041 12.7112 69.5041 12.6912 69.3041 12.7112C66.9641 12.9512 64.6641 12.5112 62.3641 12.2112C50.6541 10.6912 39.1941 7.96116 27.8041 4.92116C24.2741 3.98116 20.7941 2.83115 17.2841 1.79115C16.2141 1.47115 15.1941 1.03116 14.1041 0.78116C12.4641 0.41116 11.2341 0.891153 10.3441 2.32115C8.88406 4.66115 7.95407 7.17116 8.12407 9.97116C8.19407 11.0612 8.45406 12.1312 8.66406 13.2112C8.80406 13.9512 9.26407 14.4512 9.96407 14.7412C12.1441 15.6512 14.2841 16.6612 16.5041 17.4712C25.5041 20.7412 34.7441 23.1411 44.1441 24.9111C48.4041 25.7111 52.6841 26.3312 57.0141 26.6012C59.6141 26.7712 62.2041 26.7712 64.8041 26.4812C65.4641 26.4112 65.7541 26.1112 65.9741 25.4812C66.4041 24.2212 66.9641 23.0112 67.4441 21.7812C67.5241 21.5812 67.9941 21.3012 67.3941 21.1312C67.4541 20.9812 67.4741 20.8012 67.5641 20.6812C68.0441 20.0512 68.5341 19.4212 69.0441 18.7612C68.9241 18.7212 68.7641 18.6712 68.6141 18.6312C69.0941 17.8612 69.6241 17.6412 70.3841 17.9312C70.5041 17.9812 70.6141 18.0512 70.7341 18.1112C71.0741 18.2712 71.6841 17.6812 71.7941 18.4912C72.3141 18.5712 72.8541 18.6312 73.3641 18.7512C73.8441 18.8712 74.3141 19.0712 74.7741 19.2412C75.2741 19.4312 75.7741 19.6212 76.2641 19.8212C76.7241 20.0112 77.1941 20.1912 77.6441 20.4012C81.1741 22.0512 84.7041 23.7112 88.2341 25.3512C88.5541 25.5012 88.8941 25.8712 89.3641 25.4212C89.1341 25.2812 88.9641 25.1511 88.7741 25.0511C86.2641 23.7512 83.7641 22.4112 81.2241 21.1712C78.6141 19.9012 75.8941 18.9112 73.1141 18.0712C72.6041 17.9212 72.0841 17.7512 71.6341 17.4912C70.4741 16.8212 70.4341 15.6212 71.5041 14.8112C72.1441 14.3212 72.9041 14.1512 73.6741 14.1812C74.9241 14.2312 76.1441 14.5212 77.2841 15.0912C76.5141 14.9312 75.7541 14.7012 74.9741 14.6112C74.2541 14.5312 73.5241 14.5512 72.7941 14.6012C72.5141 14.6212 72.2241 14.7812 71.9641 14.9312C71.4941 15.2112 71.0941 15.5812 71.1241 16.1912C71.1541 16.7712 71.5741 17.0612 72.0441 17.2712C72.3141 17.4011 72.6041 17.4712 72.8941 17.5712C75.4941 18.4912 78.0941 19.4112 80.6941 20.3312C80.8441 20.3812 80.9841 20.4412 81.2041 20.3312C80.5741 20.0412 79.9441 19.7312 79.3041 19.4612C78.6641 19.1812 78.0041 18.9412 77.3641 18.6611C76.9541 18.4811 76.5641 18.2612 76.1641 18.0712C75.7641 18.0112 75.3641 17.9512 74.9641 17.8912C74.9841 17.8212 74.9941 17.7412 75.0141 17.6712C75.3941 17.8112 75.7641 17.9512 76.1441 18.0912C76.7941 18.2312 77.4541 18.3712 78.1041 18.5112C78.5041 18.5712 78.9041 18.6312 79.3041 18.6812V18.6611ZM44.5041 13.2612C45.3641 13.5012 46.2141 13.7312 47.0741 13.9712C40.6141 13.3112 34.3441 11.8812 28.2441 9.67116C30.1041 10.1212 31.9741 10.5612 33.8341 11.0112C33.4841 10.8512 33.1541 10.6312 32.7841 10.5312C29.9641 9.76116 27.1241 9.03115 24.3041 8.27115C22.9041 7.89115 21.5141 7.45115 20.1241 7.04115C23.4541 7.63116 26.6941 8.60116 30.0141 9.20116C29.7141 9.05116 29.3941 8.96116 29.0741 8.87116C25.5741 7.81116 22.0741 6.76116 18.5741 5.67116C17.7041 5.40116 16.8041 5.14115 16.1441 4.41115C16.0241 4.28115 15.7941 4.24116 15.6141 4.17116C14.5841 3.82116 13.6041 3.31116 12.4641 3.39116C13.2041 3.17116 13.9141 3.32115 14.6241 3.54115C16.7541 4.19115 18.8841 4.86116 21.0241 5.47116C32.7441 8.81116 44.6741 11.2812 56.6141 13.6812C58.8341 14.1312 61.0541 14.5611 63.2641 15.0511C64.7441 15.3811 65.7141 16.3412 65.8941 17.8412C66.0441 19.0512 65.9241 20.3012 65.9241 21.5312C65.7641 21.1312 65.7841 20.7412 65.7641 20.3412C65.7141 19.4812 65.7341 18.6012 65.5641 17.7612C65.2541 16.3112 64.1841 15.5312 62.7041 15.4912C62.3341 15.4912 61.9641 15.4912 61.6041 15.4412C59.0641 15.0812 56.5341 14.7112 54.0041 14.3512C53.7441 14.3112 53.4841 14.3211 53.2241 14.3011V14.4212C54.3541 14.6612 55.4841 14.9112 56.6241 15.1512C56.4841 15.2312 56.3441 15.2512 56.2141 15.2312C53.6841 14.8112 51.1641 14.3812 48.6341 13.9512C47.2641 13.7212 45.8841 13.4912 44.5041 13.2612ZM14.9041 15.9612C29.3541 21.2112 44.2241 24.5712 59.5241 26.0312C44.0741 25.2512 29.2041 21.8812 14.9041 15.9612ZM61.5041 26.1611C61.5041 26.1611 61.5041 26.1812 61.5041 26.1912C61.3741 26.1912 61.2441 26.1812 60.8841 26.1611H61.5041Z" fill="#F5F5F5"/>
<path d="M7.78396 77.1313C9.67396 77.0613 11.484 76.5813 13.294 76.1613C28.834 72.5613 43.524 66.7113 57.574 59.2213C74.584 50.1513 90.084 38.9913 103.954 25.5813C104.434 25.1213 104.954 24.6813 105.364 24.1613C105.814 23.5913 106.274 22.9913 106.534 22.3313C107.344 20.2113 105.924 18.0613 103.654 17.8513C102.354 17.7313 101.254 18.1913 100.204 18.9113C97.404 20.8413 94.614 22.7913 91.774 24.6413C75.944 34.9713 59.074 43.2213 41.394 49.8613C30.794 53.8413 19.994 57.2513 9.08396 60.2813C5.15396 61.3713 2.40396 63.7713 1.06396 67.6813C0.593964 69.0613 0.493958 70.4813 0.743958 71.9213C1.17396 74.4313 2.95396 76.2913 5.51396 76.8413C6.25396 77.0013 7.02396 77.0413 7.78396 77.1413V77.1313ZM1.95396 71.1413C2.18397 70.2113 2.30396 69.2413 2.65396 68.3513C3.93396 65.1113 6.37395 63.1713 9.70396 62.2513C20.974 59.1413 32.104 55.6013 43.034 51.4513C62.364 44.1213 80.684 34.8413 97.724 23.1013C98.934 22.2713 100.124 21.4213 101.334 20.5913C102.034 20.1013 102.804 19.8013 103.674 19.8813C105.264 20.0313 106.144 21.4813 105.464 22.9213C105.224 23.4213 104.854 23.8813 104.464 24.2813C103.214 25.5313 101.944 26.7613 100.654 27.9613C85.794 41.7913 69.204 53.1313 50.994 62.0813C38.304 68.3113 25.114 73.1613 11.274 76.1813C9.74396 76.5113 8.20396 76.7813 6.62396 76.5313C3.66396 76.0613 2.02396 74.1613 1.95396 71.1413ZM99.584 21.0413C99.644 21.1013 99.694 21.1613 99.754 21.2313C99.144 21.6713 98.534 22.1413 97.914 22.5613C87.584 29.5013 76.834 35.7213 65.664 41.2013C50.044 48.8613 33.864 55.0513 17.104 59.7113C13.614 60.6813 10.044 61.4013 6.76396 63.0413C6.74397 63.0413 6.70396 63.0113 6.59396 62.9613C6.90395 62.7813 7.15396 62.5913 7.43396 62.4713C8.56396 61.9913 9.68396 61.4513 10.854 61.0713C16.274 59.3213 21.734 57.7013 27.124 55.8713C52.114 47.3713 75.784 36.0713 98.144 22.0413C98.644 21.7313 99.124 21.3813 99.614 21.0513L99.584 21.0413Z" fill="#F5F5F5"/>
<path d="M118.343 30.0513C117.693 30.2413 117.043 30.4313 116.453 30.6013C116.503 30.6213 116.643 30.6713 116.803 30.7313C115.283 31.0013 113.713 30.9413 112.173 30.5613C112.243 30.5013 112.303 30.4413 112.323 30.4213C110.843 29.9613 109.293 29.5713 107.823 29.0013C106.673 28.5513 105.603 27.8713 104.503 27.3013C104.213 27.1513 103.903 27.0313 103.513 26.8613C102.853 27.4813 102.193 28.1113 101.463 28.8013C102.763 29.5813 103.893 30.4413 105.303 30.8913C106.373 31.2313 107.503 31.4313 108.473 32.1613C109.003 32.5513 109.863 32.5313 110.583 32.6213C112.363 32.8413 114.143 33.0213 115.783 33.2013C114.123 33.3613 112.333 33.2313 110.543 32.9613C107.233 32.4713 104.053 31.5113 100.913 30.3813C100.613 30.2713 100.303 29.9613 99.8332 30.3413C100.143 30.4813 100.353 30.6013 100.593 30.6913C104.093 31.9913 107.653 33.0913 111.373 33.5613C114.003 33.8913 116.623 33.9213 119.183 33.0813C119.903 32.8413 120.593 32.5013 121.293 32.1813C121.533 32.0713 121.753 31.9113 121.963 31.7413C122.703 31.1313 122.913 30.3313 122.523 29.6213C122.103 28.8613 121.313 28.6213 120.353 29.0113C119.873 29.2013 119.413 29.4513 118.943 29.6813L118.923 29.6613C119.093 29.6913 119.263 29.7213 119.433 29.7613C119.433 29.7913 119.433 29.8313 119.433 29.8613C119.053 29.9413 118.683 30.0113 118.303 30.0913L118.333 30.0613L118.343 30.0513ZM117.363 32.9313C117.363 32.9313 117.343 32.9913 117.333 33.0213C117.193 33.0113 117.043 33.0013 116.903 32.9813C116.903 32.9613 116.903 32.9513 116.903 32.9313H117.363Z" fill="#F5F5F5"/>
<path d="M45.074 8.52121C44.824 8.40121 44.594 8.24121 44.324 8.18121C36.884 6.30121 29.444 4.44121 21.994 2.57121C21.774 2.52121 21.554 2.49122 21.294 2.59122C21.584 2.69122 21.864 2.79121 22.154 2.88121C27.814 4.62121 33.594 5.89121 39.344 7.26121C40.924 7.64121 42.514 7.99122 44.104 8.34122C44.424 8.41122 44.754 8.45122 45.084 8.50122L45.064 8.52121H45.074Z" fill="#F5F5F5"/>
<path d="M87.043 22.3013C85.873 21.7413 84.703 21.1813 83.523 20.6313C83.493 20.6913 83.463 20.7614 83.433 20.8214C84.593 21.3814 85.753 21.9414 86.913 22.5114C86.953 22.4414 86.993 22.3814 87.043 22.3114V22.3013Z" fill="#F5F5F5"/>
<path d="M86.9629 23.4312C87.9629 23.9512 88.9629 24.4712 89.9629 25.0012C89.5929 24.4212 87.8729 23.5312 86.9629 23.4312Z" fill="#F5F5F5"/>
<path d="M83.083 21.4014C84.033 21.8914 84.983 22.3814 85.943 22.8714C85.973 22.8114 86.003 22.7514 86.043 22.6914C85.123 22.1614 84.163 21.7314 83.093 21.4014H83.083Z" fill="#F5F5F5"/>
<path d="M79.3034 18.6612C78.9034 18.6012 78.5034 18.5412 78.1034 18.4912C78.6434 18.6812 79.1934 18.8812 79.7334 19.0712L79.7134 19.0912C79.5734 18.9512 79.4334 18.8112 79.3034 18.6712V18.6612Z" fill="#F5F5F5"/>
<path d="M81.153 19.6514C81.663 19.9414 82.173 20.2414 82.683 20.5314L82.793 20.3114C82.263 20.0614 81.753 19.7514 81.143 19.6714L81.163 19.6514H81.153Z" fill="#F5F5F5"/>
<path d="M117.293 30.1614C117.643 30.1214 117.993 30.0914 118.343 30.0514L118.313 30.0814C118.523 29.9414 118.723 29.8014 118.933 29.6514L118.953 29.6714C118.363 29.6914 117.783 29.7514 117.303 30.1514L117.293 30.1614Z" fill="#F5F5F5"/>
<path d="M45.0934 8.50122C45.6134 8.64122 46.1334 8.78121 46.6534 8.91121C46.6634 8.83121 46.6834 8.75122 46.6934 8.67122C46.1534 8.62122 45.6134 8.56122 45.0734 8.51122L45.0934 8.49121V8.50122Z" fill="#F5F5F5"/>
<path d="M81.1333 19.6713C80.6633 19.4713 80.1833 19.2813 79.7133 19.0813L79.7333 19.0613C80.2033 19.2613 80.6833 19.4513 81.1533 19.6513L81.1333 19.6713Z" fill="#F5F5F5"/>
<path d="M117.293 30.1611H115.963C115.963 30.1611 115.963 30.2011 115.963 30.2211C116.403 30.2011 116.843 30.1811 117.293 30.1611Z" fill="#F5F5F5"/>
<path d="M44.4933 13.2613C45.8733 13.4913 47.2433 13.7113 48.6233 13.9513C51.1533 14.3813 53.6733 14.8113 56.2033 15.2313C56.3333 15.2513 56.4633 15.2313 56.6133 15.1513C55.4833 14.9113 54.3433 14.6613 53.2133 14.4213V14.3013C53.4833 14.3213 53.7433 14.3113 54.0033 14.3513C56.5433 14.7113 59.0733 15.0814 61.6033 15.4414C61.9633 15.4914 62.3333 15.4813 62.7033 15.4913C64.1833 15.5313 65.2533 16.3113 65.5633 17.7613C65.7433 18.6013 65.7133 19.4813 65.7633 20.3413C65.7833 20.7313 65.7633 21.1314 65.9233 21.5314C65.9233 20.3014 66.0433 19.0513 65.8933 17.8413C65.7133 16.3413 64.7433 15.3813 63.2633 15.0513C61.0533 14.5613 58.8333 14.1313 56.6133 13.6813C44.6733 11.2813 32.7433 8.81135 21.0233 5.47135C18.8833 4.86135 16.7533 4.19134 14.6233 3.54134C13.9133 3.32134 13.2133 3.17135 12.4633 3.39135C13.6033 3.31135 14.5933 3.82135 15.6133 4.17135C15.8033 4.23135 16.0333 4.27134 16.1433 4.41134C16.7933 5.14134 17.7033 5.40135 18.5733 5.67135C22.0633 6.76135 25.5733 7.81135 29.0733 8.87135C29.3933 8.97135 29.7033 9.05135 30.0133 9.20135C26.6933 8.59135 23.4533 7.62134 20.1233 7.04134C21.5133 7.45134 22.9033 7.89134 24.3033 8.27134C27.1233 9.04134 29.9633 9.77135 32.7833 10.5314C33.1533 10.6314 33.4833 10.8513 33.8333 11.0113C34.3333 11.1013 34.8233 11.1813 35.3233 11.2713C35.9733 11.3013 36.6233 11.3314 37.1533 11.7814C38.3433 12.0113 39.5333 12.2413 40.7233 12.4613C41.3633 12.5213 42.0233 12.5013 42.5533 12.9813C43.2033 13.0713 43.8533 13.1713 44.5033 13.2613H44.4933ZM24.3333 6.93134C22.2133 6.57134 20.1633 5.97134 18.2133 5.05134C20.2533 5.68134 22.2933 6.30134 24.3333 6.93134ZM51.8833 13.3413L51.8033 13.5113C50.9933 13.3413 50.1733 13.1813 49.3633 13.0113C49.4733 12.9113 49.5733 12.8714 49.6633 12.8914C50.4033 13.0314 51.1433 13.1814 51.8933 13.3314L51.8833 13.3413ZM53.3633 13.8113C53.3633 13.7613 53.3833 13.7113 53.3833 13.6613C53.9233 13.7513 54.4733 13.8514 55.0133 13.9414C55.0133 13.9914 54.9933 14.0413 54.9833 14.1013C54.4433 14.0013 53.9033 13.9113 53.3533 13.8113H53.3633ZM56.5933 14.4113C56.5933 14.4113 56.5933 14.3313 56.6033 14.3013C56.8033 14.3213 56.9933 14.3414 57.1933 14.3614C57.1933 14.4014 57.1933 14.4314 57.1833 14.4714C56.9833 14.4514 56.7933 14.4313 56.5933 14.4213V14.4113Z" fill="black"/>
<path d="M14.9034 15.9612C29.2034 21.8812 44.0734 25.2512 59.5234 26.0312C44.2234 24.5712 29.3534 21.2112 14.9034 15.9612Z" fill="black"/>
<path d="M44.4935 13.2614C43.8435 13.1714 43.1935 13.0714 42.5435 12.9814C41.9335 12.8114 41.3235 12.6414 40.7135 12.4614C39.5235 12.2314 38.3335 12.0014 37.1435 11.7814C36.5335 11.6114 35.9235 11.4414 35.3135 11.2714C34.8135 11.1814 34.3235 11.1014 33.8235 11.0114C31.9635 10.5614 30.0935 10.1214 28.2335 9.67139C34.3335 11.8814 40.6135 13.3114 47.0635 13.9714C46.2035 13.7314 45.3535 13.5014 44.4935 13.2614Z" fill="black"/>
<path d="M76.1441 18.0614C75.7641 17.9214 75.3941 17.7814 75.0141 17.6414C74.9941 17.7114 74.9841 17.7914 74.9641 17.8614C75.3641 17.9214 75.7641 17.9814 76.1641 18.0414L76.1541 18.0614H76.1441Z" fill="black"/>
<path d="M61.5039 26.1611H60.8839C61.2439 26.1811 61.3739 26.1811 61.5039 26.1911C61.5039 26.1911 61.5039 26.1711 61.5039 26.1611Z" fill="black"/>
<path d="M1.95332 71.1413C2.02332 74.1613 3.66331 76.0613 6.62331 76.5313C8.21331 76.7813 9.74331 76.5113 11.2733 76.1813C25.1133 73.1713 38.3033 68.3213 50.9933 62.0813C69.2133 53.1313 85.7933 41.7913 100.653 27.9613C101.943 26.7613 103.213 25.5313 104.463 24.2813C104.853 23.8913 105.223 23.4213 105.463 22.9213C106.143 21.4813 105.263 20.0313 103.673 19.8813C102.803 19.8013 102.033 20.1013 101.333 20.5913C100.123 21.4213 98.9333 22.2713 97.7233 23.1013C80.6733 34.8313 62.3633 44.1113 43.0333 51.4513C32.1033 55.6013 20.9633 59.1413 9.70331 62.2513C6.38331 63.1713 3.93331 65.1013 2.65331 68.3513C2.30331 69.2313 2.18332 70.2113 1.95332 71.1413ZM10.3033 69.1113C10.7033 69.8013 10.6833 70.4013 10.2433 70.9613C9.79331 71.5213 9.03331 71.7813 8.38331 71.5413C8.08331 71.4313 7.77332 71.2513 7.58331 71.0013C7.28331 70.6013 7.53331 69.5413 7.93331 69.1713C8.44331 68.7013 9.17331 68.6713 9.75331 69.1013C9.93331 69.2413 10.0933 69.4013 10.3133 69.6013C10.3233 69.3513 10.3333 69.2213 10.3333 69.0813C10.1133 68.9113 9.88331 68.7413 9.66331 68.5613C9.74331 68.5013 9.81331 68.4313 9.89331 68.3713C10.0333 68.6113 10.1733 68.8613 10.3133 69.1013L10.3033 69.1113ZM98.5233 25.9413C98.5733 27.3013 98.0133 27.7113 96.7233 27.2313C96.8533 26.8013 96.8833 26.2813 97.1333 25.9313C97.5133 25.4113 98.0233 26.0513 98.5233 25.9413ZM7.85331 72.1513C10.3533 72.1913 11.1133 71.5913 11.2233 69.4413C11.6533 70.3313 11.4433 71.3113 10.6733 71.9913C9.85331 72.7113 8.86331 72.7713 7.86331 72.1513H7.85331ZM99.2233 26.0413C99.6033 26.9513 99.3633 27.7113 98.6533 28.1713C97.9733 28.6113 97.2833 28.5513 96.7033 27.9913C98.3233 28.2213 99.0233 27.7213 99.2233 26.0413Z" fill="black"/>
<path d="M99.5836 21.0412C99.0936 21.3712 98.6136 21.7113 98.1136 22.0312C75.7536 36.0612 52.0936 47.3613 27.0936 55.8613C21.7036 57.6913 16.2436 59.3112 10.8236 61.0612C9.65363 61.4412 8.54363 61.9812 7.40363 62.4612C7.12363 62.5812 6.87363 62.7712 6.56363 62.9512C6.68363 63.0112 6.71364 63.0412 6.73363 63.0312C10.0136 61.3913 13.5836 60.6712 17.0736 59.7012C33.8436 55.0512 50.0236 48.8613 65.6336 41.1913C76.8036 35.7113 87.5536 29.4912 97.8836 22.5512C98.5136 22.1312 99.1136 21.6713 99.7236 21.2213C99.6636 21.1613 99.6136 21.1013 99.5536 21.0312L99.5836 21.0412Z" fill="black"/>
<path d="M118.924 29.6611C118.714 29.8011 118.514 29.9411 118.304 30.0911C118.684 30.0111 119.054 29.9411 119.434 29.8611C119.434 29.8311 119.434 29.7911 119.434 29.7611C119.264 29.7311 119.094 29.7011 118.924 29.6611Z" fill="black"/>
<path d="M117.363 32.9412H116.903C116.903 32.9412 116.903 32.9711 116.903 32.9911C117.043 33.0011 117.193 33.0112 117.333 33.0312C117.343 33.0012 117.353 32.9712 117.363 32.9412Z" fill="black"/>
<path d="M24.334 6.93127C22.294 6.30127 20.254 5.68127 18.214 5.05127C20.164 5.97127 22.214 6.57127 24.334 6.93127Z" fill="#F5F5F5"/>
<path d="M51.8838 13.3312C51.1438 13.1812 50.4038 13.0312 49.6538 12.8912C49.5638 12.8712 49.4638 12.9112 49.3538 13.0112C50.1638 13.1812 50.9838 13.3412 51.7938 13.5112L51.8738 13.3412L51.8838 13.3312Z" fill="#F5F5F5"/>
<path d="M53.3634 13.8014C53.9034 13.9014 54.4434 13.9914 54.9934 14.0914C54.9934 14.0414 55.0134 13.9914 55.0234 13.9314C54.4834 13.8414 53.9334 13.7414 53.3934 13.6514C53.3934 13.7014 53.3734 13.7514 53.3734 13.8014H53.3634Z" fill="#F5F5F5"/>
<path d="M35.3136 11.2612C35.9236 11.4312 36.5336 11.6012 37.1436 11.7712C36.6136 11.3212 35.9636 11.2812 35.3136 11.2612Z" fill="#F5F5F5"/>
<path d="M40.713 12.4612C41.323 12.6312 41.933 12.8012 42.543 12.9812C42.023 12.5012 41.353 12.5212 40.713 12.4612Z" fill="#F5F5F5"/>
<path d="M56.5934 14.4012C56.7934 14.4212 56.9834 14.4412 57.1834 14.4512C57.1834 14.4112 57.1834 14.3812 57.1934 14.3412C56.9934 14.3212 56.8034 14.3012 56.6034 14.2812C56.6034 14.3212 56.6034 14.3613 56.5934 14.3913V14.4012Z" fill="#F5F5F5"/>
<path d="M10.3237 69.0813C10.3237 69.2113 10.3137 69.3413 10.3037 69.6013C10.0837 69.4013 9.92371 69.2313 9.74371 69.1013C9.17371 68.6713 8.43371 68.7113 7.92371 69.1713C7.52371 69.5413 7.27371 70.6113 7.57371 71.0013C7.75371 71.2413 8.07372 71.4313 8.37372 71.5413C9.02372 71.7813 9.78372 71.5213 10.2337 70.9613C10.6837 70.4013 10.7037 69.8013 10.2937 69.1113L10.3137 69.0913L10.3237 69.0813Z" fill="#F5F5F5"/>
<path d="M98.5233 25.9413C98.0233 26.0513 97.5133 25.4112 97.1333 25.9312C96.8733 26.2812 96.8533 26.8012 96.7233 27.2312C98.0133 27.7212 98.5733 27.3113 98.5233 25.9413Z" fill="#F5F5F5"/>
<path d="M7.85384 72.1612C8.85384 72.7812 9.84384 72.7212 10.6638 72.0012C11.4438 71.3212 11.6538 70.3412 11.2138 69.4512C11.1038 71.6012 10.3438 72.2112 7.84384 72.1612H7.85384Z" fill="#F5F5F5"/>
<path d="M99.2231 26.0413C99.0131 27.7213 98.3231 28.2213 96.7031 27.9913C97.2931 28.5513 97.9731 28.6113 98.6531 28.1713C99.3631 27.7113 99.6031 26.9413 99.2231 26.0413Z" fill="#F5F5F5"/>
<path d="M10.3032 69.1113C10.1632 68.8713 10.0232 68.6213 9.88324 68.3813C9.80324 68.4413 9.73324 68.5114 9.65324 68.5714C9.87324 68.7414 10.1032 68.9113 10.3232 69.0913L10.3032 69.1113Z" fill="#F5F5F5"/>
</svg>
