<svg width="124" height="78" viewBox="0 0 124 78" fill="none" xmlns="http://www.w3.org/2000/svg">
<path d="M35.0879 26.1613C36.6979 27.1413 38.1379 28.0413 39.5979 28.9113C54.6479 37.9413 70.5479 45.1613 87.0579 51.0613C96.0579 54.2813 105.188 57.1113 114.398 59.6613C117.998 60.6513 120.718 62.7413 122.348 66.1313C123.188 67.8713 123.548 69.7213 123.268 71.6713C122.848 74.6713 120.828 76.8413 117.848 77.4713C116.088 77.8413 114.338 77.7313 112.588 77.3613C100.218 74.7513 88.3379 70.6313 76.8579 65.3913C57.9979 56.7713 40.7879 45.5913 25.2479 31.8513C24.9479 31.5913 24.6479 31.3213 24.3479 31.0613C24.2979 31.0213 24.2279 31.0013 24.1279 30.9413C22.7579 31.4113 21.3479 31.9213 19.9279 32.3813C16.8179 33.3913 13.6479 34.1613 10.3679 34.3813C7.66787 34.5613 5.03787 34.3013 2.54787 33.1713C2.03787 32.9413 1.52787 32.6613 1.07787 32.3313C0.00786579 31.5513 -0.292134 30.2813 0.297866 29.2413C0.877866 28.2313 2.01787 27.8613 3.25787 28.4013C5.35787 29.3313 7.54787 29.7113 9.79787 29.4013C11.4079 29.1813 13.0079 28.7913 14.5579 28.3113C16.1379 27.8213 17.6579 27.1113 19.3879 26.4313C18.9479 25.9913 18.6179 25.6813 18.3179 25.3513C17.8179 24.8113 17.2779 24.3113 16.8579 23.7213C15.7479 22.1413 15.7179 20.2413 16.7279 18.8613C17.7479 17.4713 19.6879 16.8313 21.4779 17.3913C22.1979 17.6213 22.8879 18.0013 23.5179 18.4113C25.0779 19.4413 26.5879 20.5313 28.1679 21.6313C28.4979 21.4613 28.8079 21.2913 29.1279 21.1213C32.2379 19.5313 35.3179 17.8613 38.4779 16.3713C43.7279 13.8913 49.2479 12.3513 55.0679 11.8713C59.9479 11.4613 64.7679 10.5313 69.5679 9.56127C79.8879 7.48127 90.0479 4.75127 100.248 2.17127C103.118 1.44127 106.018 0.821262 108.908 0.161262C109.358 0.0612618 109.828 0.0112734 110.298 0.00127337C111.558 -0.0287266 112.598 0.471268 113.298 1.51127C115.688 5.05127 116.618 8.87126 115.448 13.1013C115.138 14.2213 114.518 14.9513 113.468 15.4413C109.508 17.3013 105.388 18.7313 101.228 20.0513C93.2479 22.5713 85.1379 24.5913 76.8879 26.0013C72.3879 26.7713 67.8579 27.3413 63.2779 27.3413C61.5879 27.3413 59.8879 27.1513 58.1979 27.0513C57.4679 27.0113 57.0579 26.6013 56.8679 25.9113C56.4679 24.4213 55.8979 23.0113 55.1279 21.6713C54.6079 20.7813 53.8779 20.1213 52.9679 19.6613C51.9979 19.1713 51.0079 19.0213 49.9779 19.4313C48.0979 20.1913 46.1879 20.8913 44.3379 21.7313C41.4879 23.0213 38.6679 24.4013 35.8479 25.7413C35.6479 25.8413 35.4479 25.9613 35.0979 26.1613H35.0879ZM6.06787 30.1613C6.50787 30.1813 6.94787 30.2013 7.39787 30.2213C7.39787 30.2013 7.39787 30.1813 7.39787 30.1613H6.06787C5.58787 29.7613 5.00787 29.6913 4.41787 29.6813C3.94787 29.4513 3.48787 29.2013 3.00787 29.0113C2.04787 28.6313 1.24787 28.8713 0.837866 29.6213C0.447866 30.3313 0.657866 31.1313 1.39787 31.7413C1.59787 31.9113 1.82787 32.0713 2.06787 32.1813C2.75787 32.5013 3.44787 32.8413 4.17787 33.0813C6.73787 33.9213 9.35787 33.8913 11.9879 33.5613C15.7079 33.0913 19.2679 31.9913 22.7679 30.6913C22.9979 30.6013 23.2179 30.4813 23.5279 30.3413C23.0579 29.9713 22.7479 30.2713 22.4479 30.3813C19.3079 31.5113 16.1279 32.4713 12.8179 32.9613C11.0279 33.2213 9.23787 33.3613 7.57787 33.2013C9.21787 33.0213 11.0079 32.8413 12.7779 32.6213C13.4979 32.5313 14.3579 32.5513 14.8879 32.1613C15.8579 31.4313 16.9879 31.2413 18.0579 30.8913C19.4679 30.4413 20.5979 29.5913 21.8979 28.8013C21.1679 28.1113 20.4979 27.4813 19.8479 26.8613C19.4579 27.0313 19.1579 27.1513 18.8579 27.3013C17.7479 27.8713 16.6879 28.5513 15.5379 29.0013C14.0679 29.5713 12.5179 29.9613 11.0379 30.4213C11.0579 30.4413 11.1179 30.5013 11.1879 30.5613C9.64787 30.9513 8.06787 31.0113 6.55787 30.7313C6.71787 30.6713 6.85787 30.6213 6.90787 30.6013C6.31787 30.4313 5.66787 30.2413 5.01787 30.0513C5.36787 30.0913 5.71787 30.1213 6.06787 30.1613ZM42.2279 19.6713C41.6079 19.7513 41.1079 20.0613 40.5779 20.3113L40.6879 20.5313C41.1979 20.2413 41.7079 19.9413 42.2179 19.6513C42.6879 19.4513 43.1679 19.2613 43.6379 19.0613C44.1779 18.8713 44.7279 18.6713 45.2679 18.4813C45.9179 18.3413 46.5779 18.2013 47.2279 18.0613L47.2179 18.0413C46.8179 18.2413 46.4279 18.4613 46.0179 18.6313C45.3779 18.9113 44.7179 19.1513 44.0779 19.4313C43.4379 19.7113 42.8079 20.0113 42.1779 20.3013C42.3979 20.4013 42.5379 20.3413 42.6879 20.3013C45.2879 19.3813 47.8879 18.4613 50.4879 17.5413C50.7679 17.4413 51.0679 17.3713 51.3379 17.2413C51.7979 17.0213 52.2279 16.7313 52.2579 16.1613C52.2879 15.5513 51.8979 15.1813 51.4179 14.9013C51.1679 14.7513 50.8679 14.5913 50.5879 14.5713C49.8679 14.5313 49.1279 14.5013 48.4079 14.5813C47.6279 14.6713 46.8679 14.8913 46.0979 15.0613C47.2379 14.4913 48.4579 14.2113 49.7079 14.1513C50.4779 14.1213 51.2379 14.3013 51.8779 14.7813C52.9479 15.5913 52.9079 16.7913 51.7479 17.4613C51.2979 17.7213 50.7779 17.8913 50.2679 18.0413C47.4879 18.8813 44.7679 19.8613 42.1579 21.1413C39.6179 22.3813 37.1179 23.7213 34.6079 25.0213C34.4179 25.1213 34.2479 25.2513 34.0179 25.3913C34.4879 25.8413 34.8279 25.4813 35.1479 25.3213C38.6779 23.6813 42.2079 22.0213 45.7379 20.3713C46.1879 20.1613 46.6579 19.9713 47.1179 19.7913C47.6079 19.5913 48.1079 19.4013 48.6079 19.2113C49.0779 19.0413 49.5379 18.8413 50.0179 18.7213C50.5279 18.5913 51.0579 18.5413 51.5879 18.4613C51.7079 17.6613 52.3079 18.2513 52.6479 18.0813C52.7679 18.0213 52.8779 17.9513 52.9979 17.9013C53.7579 17.6113 54.2879 17.8313 54.7679 18.6013C54.6079 18.6513 54.4479 18.7013 54.3379 18.7313C54.8479 19.3913 55.3479 20.0113 55.8179 20.6513C55.9079 20.7713 55.9379 20.9513 55.9879 21.1013C55.3879 21.2713 55.8579 21.5613 55.9379 21.7513C56.4179 22.9913 56.9779 24.2013 57.4079 25.4513C57.6179 26.0813 57.9079 26.3813 58.5779 26.4513C61.1679 26.7413 63.7679 26.7413 66.3679 26.5713C70.6979 26.2913 74.9779 25.6813 79.2379 24.8813C88.6479 23.1113 97.8779 20.7113 106.878 17.4413C109.098 16.6313 111.238 15.6313 113.418 14.7113C114.108 14.4213 114.578 13.9213 114.718 13.1813C114.928 12.1113 115.188 11.0313 115.258 9.94128C115.438 7.14128 114.498 4.63127 113.038 2.29127C112.148 0.861267 110.918 0.381273 109.278 0.751273C108.188 1.00127 107.158 1.44127 106.098 1.76127C102.588 2.80127 99.1079 3.95127 95.5779 4.89127C84.1879 7.93127 72.7279 10.6613 61.0179 12.1813C58.7179 12.4813 56.4179 12.9213 54.0779 12.6813C53.8779 12.6613 53.6779 12.6813 53.4779 12.7013C50.5879 13.0213 47.7579 13.6113 44.9979 14.5113C39.4579 16.3113 34.3179 18.9913 29.2579 21.8213C29.1579 21.8813 29.0879 21.9913 28.9679 22.1313C29.5979 22.5513 30.2179 22.9013 30.7479 23.3413C31.3979 23.8813 31.9579 23.8813 32.7179 23.4813C35.9979 21.7813 39.3579 20.2213 42.8379 18.9613C43.2379 18.8113 43.6679 18.7413 44.0779 18.6313C43.9379 18.7713 43.7979 18.9113 43.6579 19.0513C43.1879 19.2513 42.7079 19.4413 42.2379 19.6413L42.2279 19.6713ZM78.2679 8.51127C78.5979 8.46127 78.9279 8.42126 79.2479 8.35126C80.8379 8.00126 82.4279 7.65126 84.0079 7.27126C89.7579 5.90126 95.5379 4.63127 101.198 2.89127C101.488 2.80127 101.778 2.70126 102.058 2.60126C101.798 2.50126 101.578 2.52128 101.358 2.58128C93.9179 4.45128 86.4679 6.31128 79.0279 8.19128C78.7679 8.26128 78.5279 8.42127 78.2779 8.53127C77.7379 8.58127 77.1979 8.64128 76.6579 8.69128C76.6679 8.77128 76.6879 8.85127 76.6979 8.93127C77.2179 8.79127 77.7379 8.65126 78.2579 8.52126L78.2679 8.51127ZM115.578 77.1413C116.338 77.0413 117.108 77.0013 117.848 76.8413C120.418 76.2913 122.188 74.4413 122.618 71.9213C122.868 70.4813 122.768 69.0613 122.298 67.6813C120.968 63.7713 118.208 61.3713 114.278 60.2813C103.368 57.2513 92.5779 53.8513 81.9679 49.8613C64.2879 43.2213 47.4179 34.9813 31.5879 24.6413C28.7379 22.7813 25.9579 20.8413 23.1579 18.9113C22.1079 18.1913 21.0079 17.7313 19.7079 17.8513C17.4479 18.0613 16.0179 20.2113 16.8279 22.3313C17.0779 22.9913 17.5479 23.6013 17.9979 24.1613C18.4079 24.6813 18.9279 25.1113 19.4079 25.5813C33.2779 38.9913 48.7779 50.1513 65.7879 59.2213C79.8379 66.7213 94.5279 72.5613 110.068 76.1613C111.878 76.5813 113.688 77.0713 115.578 77.1313V77.1413ZM36.3179 22.3113C36.3579 22.3813 36.3979 22.4413 36.4479 22.5113C37.6079 21.9513 38.7679 21.3913 39.9279 20.8213C39.8979 20.7613 39.8679 20.6913 39.8379 20.6313C38.6679 21.1913 37.4979 21.7513 36.3179 22.3013V22.3113ZM36.3979 23.4413C35.4879 23.5413 33.7679 24.4313 33.3979 25.0113C34.3979 24.4913 35.3979 23.9713 36.3979 23.4413ZM40.2779 21.4113C39.2079 21.7513 38.2379 22.1813 37.3279 22.7013C37.3579 22.7613 37.3879 22.8213 37.4279 22.8813C38.3779 22.3913 39.3279 21.9013 40.2879 21.4113H40.2779Z" fill="black"/>
<path d="M44.0573 18.6611C43.6473 18.7712 43.2173 18.8412 42.8173 18.9912C39.3373 20.2512 35.9873 21.8112 32.6973 23.5112C31.9373 23.9112 31.3773 23.9012 30.7273 23.3712C30.1973 22.9312 29.5773 22.5812 28.9473 22.1611C29.0673 22.0312 29.1373 21.9112 29.2373 21.8512C34.2973 19.0212 39.4373 16.3512 44.9773 14.5412C47.7373 13.6412 50.5673 13.0412 53.4573 12.7312C53.6573 12.7112 53.8573 12.6912 54.0573 12.7112C56.3973 12.9512 58.6973 12.5112 60.9973 12.2112C72.7073 10.6912 84.1673 7.96116 95.5573 4.92116C99.0873 3.98116 102.567 2.83115 106.077 1.79115C107.147 1.47115 108.167 1.03116 109.257 0.78116C110.897 0.41116 112.127 0.891153 113.017 2.32115C114.477 4.66115 115.407 7.17116 115.237 9.97116C115.167 11.0612 114.907 12.1312 114.697 13.2112C114.557 13.9512 114.097 14.4512 113.397 14.7412C111.217 15.6512 109.077 16.6612 106.857 17.4712C97.8573 20.7412 88.6173 23.1411 79.2173 24.9111C74.9573 25.7111 70.6773 26.3312 66.3473 26.6012C63.7473 26.7712 61.1573 26.7712 58.5573 26.4812C57.8973 26.4112 57.6073 26.1112 57.3873 25.4812C56.9573 24.2212 56.3973 23.0112 55.9173 21.7812C55.8373 21.5812 55.3673 21.3012 55.9673 21.1312C55.9073 20.9812 55.8873 20.8012 55.7973 20.6812C55.3173 20.0512 54.8273 19.4212 54.3173 18.7612C54.4373 18.7212 54.5973 18.6712 54.7473 18.6312C54.2673 17.8612 53.7373 17.6412 52.9773 17.9312C52.8573 17.9812 52.7473 18.0512 52.6273 18.1112C52.2873 18.2712 51.6773 17.6812 51.5673 18.4912C51.0473 18.5712 50.5073 18.6312 49.9973 18.7512C49.5173 18.8712 49.0473 19.0712 48.5873 19.2412C48.0873 19.4312 47.5873 19.6212 47.0973 19.8212C46.6373 20.0112 46.1673 20.1912 45.7173 20.4012C42.1873 22.0512 38.6573 23.7112 35.1273 25.3512C34.8073 25.5012 34.4673 25.8712 33.9973 25.4212C34.2273 25.2812 34.3973 25.1511 34.5873 25.0511C37.0973 23.7512 39.5973 22.4112 42.1373 21.1712C44.7473 19.9012 47.4673 18.9112 50.2473 18.0712C50.7573 17.9212 51.2773 17.7512 51.7273 17.4912C52.8873 16.8212 52.9273 15.6212 51.8573 14.8112C51.2173 14.3212 50.4573 14.1512 49.6873 14.1812C48.4373 14.2312 47.2173 14.5212 46.0773 15.0912C46.8473 14.9312 47.6073 14.7012 48.3873 14.6112C49.1073 14.5312 49.8373 14.5512 50.5673 14.6012C50.8473 14.6212 51.1373 14.7812 51.3973 14.9312C51.8673 15.2112 52.2673 15.5812 52.2373 16.1912C52.2073 16.7712 51.7873 17.0612 51.3173 17.2712C51.0473 17.4011 50.7573 17.4712 50.4673 17.5712C47.8673 18.4912 45.2673 19.4112 42.6673 20.3312C42.5173 20.3812 42.3773 20.4412 42.1573 20.3312C42.7873 20.0412 43.4173 19.7312 44.0573 19.4612C44.6973 19.1812 45.3573 18.9412 45.9973 18.6611C46.4073 18.4811 46.7973 18.2612 47.1973 18.0712C47.5973 18.0112 47.9973 17.9512 48.3973 17.8912C48.3773 17.8212 48.3673 17.7412 48.3473 17.6712C47.9673 17.8112 47.5973 17.9512 47.2173 18.0912C46.5673 18.2312 45.9073 18.3712 45.2573 18.5112C44.8573 18.5712 44.4573 18.6312 44.0573 18.6812V18.6611ZM78.8573 13.2612C77.9973 13.5012 77.1473 13.7312 76.2873 13.9712C82.7473 13.3112 89.0173 11.8812 95.1173 9.67116C93.2573 10.1212 91.3873 10.5612 89.5273 11.0112C89.8773 10.8512 90.2073 10.6312 90.5773 10.5312C93.3973 9.76116 96.2373 9.03115 99.0573 8.27115C100.457 7.89115 101.847 7.45115 103.237 7.04115C99.9073 7.63116 96.6673 8.60116 93.3473 9.20116C93.6473 9.05116 93.9673 8.96116 94.2873 8.87116C97.7873 7.81116 101.287 6.76116 104.787 5.67116C105.657 5.40116 106.557 5.14115 107.217 4.41115C107.337 4.28115 107.567 4.24116 107.747 4.17116C108.777 3.82116 109.757 3.31116 110.897 3.39116C110.157 3.17116 109.447 3.32115 108.737 3.54115C106.607 4.19115 104.477 4.86116 102.337 5.47116C90.6173 8.81116 78.6873 11.2812 66.7473 13.6812C64.5273 14.1312 62.3073 14.5611 60.0973 15.0511C58.6173 15.3811 57.6473 16.3412 57.4673 17.8412C57.3173 19.0512 57.4373 20.3012 57.4373 21.5312C57.5973 21.1312 57.5773 20.7412 57.5973 20.3412C57.6473 19.4812 57.6273 18.6012 57.7973 17.7612C58.1073 16.3112 59.1773 15.5312 60.6573 15.4912C61.0273 15.4912 61.3973 15.4912 61.7573 15.4412C64.2973 15.0812 66.8273 14.7112 69.3573 14.3512C69.6173 14.3112 69.8773 14.3211 70.1373 14.3011V14.4212C69.0073 14.6612 67.8773 14.9112 66.7373 15.1512C66.8773 15.2312 67.0173 15.2512 67.1473 15.2312C69.6773 14.8112 72.1973 14.3812 74.7273 13.9512C76.0973 13.7212 77.4773 13.4912 78.8573 13.2612ZM108.457 15.9612C94.0073 21.2112 79.1373 24.5712 63.8373 26.0312C79.2873 25.2512 94.1573 21.8812 108.457 15.9612ZM61.8573 26.1611C61.8573 26.1611 61.8573 26.1812 61.8573 26.1912C61.9873 26.1912 62.1173 26.1812 62.4773 26.1611H61.8573Z" fill="#F5F5F5"/>
<path d="M115.577 77.1313C113.687 77.0613 111.877 76.5813 110.067 76.1613C94.5274 72.5613 79.8374 66.7113 65.7874 59.2213C48.7774 50.1513 33.2774 38.9913 19.4074 25.5813C18.9274 25.1213 18.4074 24.6813 17.9974 24.1613C17.5474 23.5913 17.0874 22.9913 16.8274 22.3313C16.0174 20.2113 17.4374 18.0613 19.7074 17.8513C21.0074 17.7313 22.1074 18.1913 23.1574 18.9113C25.9574 20.8413 28.7474 22.7913 31.5874 24.6413C47.4174 34.9713 64.2874 43.2213 81.9674 49.8613C92.5674 53.8413 103.367 57.2513 114.277 60.2813C118.207 61.3713 120.957 63.7713 122.297 67.6813C122.767 69.0613 122.867 70.4813 122.617 71.9213C122.187 74.4313 120.407 76.2913 117.847 76.8413C117.107 77.0013 116.337 77.0413 115.577 77.1413V77.1313ZM121.407 71.1413C121.177 70.2113 121.057 69.2413 120.707 68.3513C119.427 65.1113 116.987 63.1713 113.657 62.2513C102.387 59.1413 91.2574 55.6013 80.3274 51.4513C60.9974 44.1213 42.6774 34.8413 25.6374 23.1013C24.4274 22.2713 23.2374 21.4213 22.0274 20.5913C21.3274 20.1013 20.5574 19.8013 19.6874 19.8813C18.0974 20.0313 17.2174 21.4813 17.8974 22.9213C18.1374 23.4213 18.5074 23.8813 18.8974 24.2813C20.1474 25.5313 21.4174 26.7613 22.7074 27.9613C37.5674 41.7913 54.1574 53.1313 72.3674 62.0813C85.0574 68.3113 98.2474 73.1613 112.087 76.1813C113.617 76.5113 115.157 76.7813 116.737 76.5313C119.697 76.0613 121.337 74.1613 121.407 71.1413ZM23.7774 21.0413C23.7174 21.1013 23.6674 21.1613 23.6074 21.2313C24.2174 21.6713 24.8274 22.1413 25.4474 22.5613C35.7774 29.5013 46.5274 35.7213 57.6974 41.2013C73.3174 48.8613 89.4974 55.0513 106.257 59.7113C109.747 60.6813 113.317 61.4013 116.597 63.0413C116.617 63.0413 116.657 63.0113 116.767 62.9613C116.457 62.7813 116.207 62.5913 115.927 62.4713C114.797 61.9913 113.677 61.4513 112.507 61.0713C107.087 59.3213 101.627 57.7013 96.2374 55.8713C71.2474 47.3713 47.5774 36.0713 25.2174 22.0413C24.7174 21.7313 24.2374 21.3813 23.7474 21.0513L23.7774 21.0413Z" fill="#F5F5F5"/>
<path d="M5.01811 30.0513C5.66811 30.2413 6.31811 30.4313 6.90811 30.6013C6.85811 30.6213 6.71811 30.6713 6.55811 30.7313C8.07811 31.0013 9.64811 30.9413 11.1881 30.5613C11.1181 30.5013 11.0581 30.4413 11.0381 30.4213C12.5181 29.9613 14.0681 29.5713 15.5381 29.0013C16.6881 28.5513 17.7581 27.8713 18.8581 27.3013C19.1481 27.1513 19.4581 27.0313 19.8481 26.8613C20.5081 27.4813 21.1681 28.1113 21.8981 28.8013C20.5981 29.5813 19.4681 30.4413 18.0581 30.8913C16.9881 31.2313 15.8581 31.4313 14.8881 32.1613C14.3581 32.5513 13.4981 32.5313 12.7781 32.6213C10.9981 32.8413 9.21811 33.0213 7.57811 33.2013C9.23811 33.3613 11.0281 33.2313 12.8181 32.9613C16.1281 32.4713 19.3081 31.5113 22.4481 30.3813C22.7481 30.2713 23.0581 29.9613 23.5281 30.3413C23.2181 30.4813 23.0081 30.6013 22.7681 30.6913C19.2681 31.9913 15.7081 33.0913 11.9881 33.5613C9.35811 33.8913 6.73811 33.9213 4.17811 33.0813C3.45811 32.8413 2.76811 32.5013 2.06811 32.1813C1.82811 32.0713 1.60811 31.9113 1.39811 31.7413C0.658106 31.1313 0.448107 30.3313 0.838107 29.6213C1.25811 28.8613 2.04811 28.6213 3.00811 29.0113C3.48811 29.2013 3.94811 29.4513 4.41811 29.6813L4.43811 29.6613C4.26811 29.6913 4.09811 29.7213 3.92811 29.7613C3.92811 29.7913 3.92811 29.8313 3.92811 29.8613C4.30811 29.9413 4.67811 30.0113 5.05811 30.0913L5.02811 30.0613L5.01811 30.0513ZM5.99811 32.9313C5.99811 32.9313 6.01811 32.9913 6.02811 33.0213C6.16811 33.0113 6.31811 33.0013 6.45811 32.9813C6.45811 32.9613 6.45811 32.9513 6.45811 32.9313H5.99811Z" fill="#F5F5F5"/>
<path d="M78.2873 8.52121C78.5373 8.40121 78.7673 8.24121 79.0373 8.18121C86.4773 6.30121 93.9173 4.44121 101.367 2.57121C101.587 2.52121 101.807 2.49122 102.067 2.59122C101.777 2.69122 101.497 2.79121 101.207 2.88121C95.5473 4.62121 89.7673 5.89121 84.0173 7.26121C82.4373 7.64121 80.8473 7.99122 79.2573 8.34122C78.9373 8.41122 78.6073 8.45122 78.2773 8.50122L78.2973 8.52121H78.2873Z" fill="#F5F5F5"/>
<path d="M36.3184 22.3013C37.4884 21.7413 38.6584 21.1813 39.8384 20.6313C39.8684 20.6913 39.8984 20.7614 39.9284 20.8214C38.7684 21.3814 37.6084 21.9414 36.4484 22.5114C36.4084 22.4414 36.3684 22.3814 36.3184 22.3114V22.3013Z" fill="#F5F5F5"/>
<path d="M36.3984 23.4312C35.3984 23.9512 34.3984 24.4712 33.3984 25.0012C33.7684 24.4212 35.4884 23.5312 36.3984 23.4312Z" fill="#F5F5F5"/>
<path d="M40.2784 21.4014C39.3284 21.8914 38.3784 22.3814 37.4184 22.8714C37.3884 22.8114 37.3584 22.7514 37.3184 22.6914C38.2384 22.1614 39.1984 21.7314 40.2684 21.4014H40.2784Z" fill="#F5F5F5"/>
<path d="M44.0579 18.6612C44.4579 18.6012 44.8579 18.5412 45.2579 18.4912C44.7179 18.6812 44.1679 18.8812 43.6279 19.0712L43.6479 19.0912C43.7879 18.9512 43.9279 18.8112 44.0579 18.6712V18.6612Z" fill="#F5F5F5"/>
<path d="M42.2084 19.6514C41.6984 19.9414 41.1884 20.2414 40.6784 20.5314L40.5684 20.3114C41.0984 20.0614 41.6084 19.7514 42.2184 19.6714L42.1984 19.6514H42.2084Z" fill="#F5F5F5"/>
<path d="M6.0682 30.1614C5.7182 30.1214 5.3682 30.0914 5.0182 30.0514L5.0482 30.0814C4.8382 29.9414 4.6382 29.8014 4.4282 29.6514L4.4082 29.6714C4.9982 29.6914 5.5782 29.7514 6.0582 30.1514L6.0682 30.1614Z" fill="#F5F5F5"/>
<path d="M78.268 8.50122C77.748 8.64122 77.228 8.78121 76.708 8.91121C76.698 8.83121 76.678 8.75122 76.668 8.67122C77.208 8.62122 77.748 8.56122 78.288 8.51122L78.268 8.49121V8.50122Z" fill="#F5F5F5"/>
<path d="M42.228 19.6713C42.698 19.4713 43.178 19.2813 43.648 19.0813L43.628 19.0613C43.158 19.2613 42.678 19.4513 42.208 19.6513L42.228 19.6713Z" fill="#F5F5F5"/>
<path d="M6.06836 30.1611H7.39836C7.39836 30.1611 7.39836 30.2011 7.39836 30.2211C6.95836 30.2011 6.51836 30.1811 6.06836 30.1611Z" fill="#F5F5F5"/>
<path d="M78.868 13.2613C77.488 13.4913 76.118 13.7113 74.738 13.9513C72.208 14.3813 69.688 14.8113 67.158 15.2313C67.028 15.2513 66.898 15.2313 66.748 15.1513C67.878 14.9113 69.018 14.6613 70.148 14.4213V14.3013C69.878 14.3213 69.618 14.3113 69.358 14.3513C66.818 14.7113 64.288 15.0814 61.758 15.4414C61.398 15.4914 61.028 15.4813 60.658 15.4913C59.178 15.5313 58.108 16.3113 57.798 17.7613C57.618 18.6013 57.648 19.4813 57.598 20.3413C57.578 20.7313 57.598 21.1314 57.438 21.5314C57.438 20.3014 57.318 19.0513 57.468 17.8413C57.648 16.3413 58.618 15.3813 60.098 15.0513C62.308 14.5613 64.528 14.1313 66.748 13.6813C78.688 11.2813 90.618 8.81135 102.338 5.47135C104.478 4.86135 106.608 4.19134 108.738 3.54134C109.448 3.32134 110.148 3.17135 110.898 3.39135C109.758 3.31135 108.768 3.82135 107.748 4.17135C107.558 4.23135 107.328 4.27134 107.218 4.41134C106.568 5.14134 105.658 5.40135 104.788 5.67135C101.298 6.76135 97.788 7.81135 94.288 8.87135C93.968 8.97135 93.658 9.05135 93.348 9.20135C96.668 8.59135 99.908 7.62134 103.238 7.04134C101.848 7.45134 100.458 7.89134 99.058 8.27134C96.238 9.04134 93.398 9.77135 90.578 10.5314C90.208 10.6314 89.878 10.8513 89.528 11.0113C89.028 11.1013 88.538 11.1813 88.038 11.2713C87.388 11.3013 86.738 11.3314 86.208 11.7814C85.018 12.0113 83.828 12.2413 82.638 12.4613C81.998 12.5213 81.338 12.5013 80.808 12.9813C80.158 13.0713 79.508 13.1713 78.858 13.2613H78.868ZM99.028 6.93134C101.148 6.57134 103.198 5.97134 105.148 5.05134C103.108 5.68134 101.068 6.30134 99.028 6.93134ZM71.478 13.3413L71.558 13.5113C72.368 13.3413 73.188 13.1813 73.998 13.0113C73.888 12.9113 73.788 12.8714 73.698 12.8914C72.958 13.0314 72.218 13.1814 71.468 13.3314L71.478 13.3413ZM69.998 13.8113C69.998 13.7613 69.978 13.7113 69.978 13.6613C69.438 13.7513 68.888 13.8514 68.348 13.9414C68.348 13.9914 68.368 14.0413 68.378 14.1013C68.918 14.0013 69.458 13.9113 70.008 13.8113H69.998ZM66.768 14.4113C66.768 14.4113 66.768 14.3313 66.758 14.3013C66.558 14.3213 66.368 14.3414 66.168 14.3614C66.168 14.4014 66.168 14.4314 66.178 14.4714C66.378 14.4514 66.568 14.4313 66.768 14.4213V14.4113Z" fill="black"/>
<path d="M108.458 15.9612C94.1579 21.8812 79.2879 25.2512 63.8379 26.0312C79.1379 24.5712 94.0079 21.2112 108.458 15.9612Z" fill="black"/>
<path d="M78.8679 13.2614C79.5179 13.1714 80.1678 13.0714 80.8178 12.9814C81.4278 12.8114 82.0378 12.6414 82.6479 12.4614C83.8379 12.2314 85.0278 12.0014 86.2178 11.7814C86.8278 11.6114 87.4379 11.4414 88.0479 11.2714C88.5479 11.1814 89.0378 11.1014 89.5378 11.0114C91.3978 10.5614 93.2678 10.1214 95.1278 9.67139C89.0278 11.8814 82.7479 13.3114 76.2979 13.9714C77.1579 13.7314 78.0079 13.5014 78.8679 13.2614Z" fill="black"/>
<path d="M47.2173 18.0614C47.5973 17.9214 47.9673 17.7814 48.3473 17.6414C48.3673 17.7114 48.3773 17.7914 48.3973 17.8614C47.9973 17.9214 47.5973 17.9814 47.1973 18.0414L47.2073 18.0614H47.2173Z" fill="black"/>
<path d="M61.8574 26.1611H62.4774C62.1174 26.1811 61.9874 26.1811 61.8574 26.1911C61.8574 26.1911 61.8574 26.1711 61.8574 26.1611Z" fill="black"/>
<path d="M121.408 71.1413C121.338 74.1613 119.698 76.0613 116.738 76.5313C115.148 76.7813 113.618 76.5113 112.088 76.1813C98.248 73.1713 85.058 68.3213 72.368 62.0813C54.148 53.1313 37.568 41.7913 22.708 27.9613C21.418 26.7613 20.148 25.5313 18.898 24.2813C18.508 23.8913 18.138 23.4213 17.898 22.9213C17.218 21.4813 18.098 20.0313 19.688 19.8813C20.558 19.8013 21.328 20.1013 22.028 20.5913C23.238 21.4213 24.428 22.2713 25.638 23.1013C42.688 34.8313 60.998 44.1113 80.328 51.4513C91.258 55.6013 102.398 59.1413 113.658 62.2513C116.978 63.1713 119.428 65.1013 120.708 68.3513C121.058 69.2313 121.178 70.2113 121.408 71.1413ZM113.058 69.1113C112.658 69.8013 112.678 70.4013 113.118 70.9613C113.568 71.5213 114.328 71.7813 114.978 71.5413C115.278 71.4313 115.588 71.2513 115.778 71.0013C116.078 70.6013 115.828 69.5413 115.428 69.1713C114.918 68.7013 114.188 68.6713 113.608 69.1013C113.428 69.2413 113.268 69.4013 113.048 69.6013C113.038 69.3513 113.028 69.2213 113.028 69.0813C113.248 68.9113 113.478 68.7413 113.698 68.5613C113.618 68.5013 113.548 68.4313 113.468 68.3713C113.328 68.6113 113.188 68.8613 113.048 69.1013L113.058 69.1113ZM24.838 25.9413C24.788 27.3013 25.348 27.7113 26.638 27.2313C26.508 26.8013 26.478 26.2813 26.228 25.9313C25.848 25.4113 25.338 26.0513 24.838 25.9413ZM115.508 72.1513C113.008 72.1913 112.248 71.5913 112.138 69.4413C111.708 70.3313 111.918 71.3113 112.688 71.9913C113.508 72.7113 114.498 72.7713 115.498 72.1513H115.508ZM24.138 26.0413C23.758 26.9513 23.998 27.7113 24.708 28.1713C25.388 28.6113 26.078 28.5513 26.658 27.9913C25.038 28.2213 24.338 27.7213 24.138 26.0413Z" fill="black"/>
<path d="M23.7777 21.0412C24.2677 21.3712 24.7477 21.7113 25.2477 22.0312C47.6077 36.0612 71.2677 47.3613 96.2677 55.8613C101.658 57.6913 107.118 59.3112 112.538 61.0612C113.708 61.4412 114.818 61.9812 115.958 62.4612C116.238 62.5812 116.488 62.7712 116.798 62.9512C116.678 63.0112 116.648 63.0412 116.628 63.0312C113.348 61.3913 109.778 60.6712 106.288 59.7012C89.5177 55.0512 73.3377 48.8613 57.7277 41.1913C46.5577 35.7113 35.8077 29.4912 25.4777 22.5512C24.8477 22.1312 24.2477 21.6713 23.6377 21.2213C23.6977 21.1613 23.7477 21.1013 23.8077 21.0312L23.7777 21.0412Z" fill="black"/>
<path d="M4.43773 29.6611C4.64773 29.8011 4.84773 29.9411 5.05773 30.0911C4.67773 30.0111 4.30773 29.9411 3.92773 29.8611C3.92773 29.8311 3.92773 29.7911 3.92773 29.7611C4.09773 29.7311 4.26773 29.7011 4.43773 29.6611Z" fill="black"/>
<path d="M5.99805 32.9412H6.45805C6.45805 32.9412 6.45805 32.9711 6.45805 32.9911C6.31805 33.0011 6.16805 33.0112 6.02805 33.0312C6.01805 33.0012 6.00805 32.9712 5.99805 32.9412Z" fill="black"/>
<path d="M99.0273 6.93127C101.067 6.30127 103.107 5.68127 105.147 5.05127C103.197 5.97127 101.147 6.57127 99.0273 6.93127Z" fill="#F5F5F5"/>
<path d="M71.4775 13.3312C72.2175 13.1812 72.9575 13.0312 73.7075 12.8912C73.7975 12.8712 73.8975 12.9112 74.0075 13.0112C73.1975 13.1812 72.3775 13.3412 71.5675 13.5112L71.4875 13.3412L71.4775 13.3312Z" fill="#F5F5F5"/>
<path d="M69.9979 13.8014C69.4579 13.9014 68.9179 13.9914 68.3679 14.0914C68.3679 14.0414 68.3479 13.9914 68.3379 13.9314C68.8779 13.8414 69.4279 13.7414 69.9679 13.6514C69.9679 13.7014 69.9879 13.7514 69.9879 13.8014H69.9979Z" fill="#F5F5F5"/>
<path d="M88.0478 11.2612C87.4378 11.4312 86.8278 11.6012 86.2178 11.7712C86.7478 11.3212 87.3978 11.2812 88.0478 11.2612Z" fill="#F5F5F5"/>
<path d="M82.6484 12.4612C82.0384 12.6312 81.4284 12.8012 80.8184 12.9812C81.3384 12.5012 82.0084 12.5212 82.6484 12.4612Z" fill="#F5F5F5"/>
<path d="M66.768 14.4012C66.568 14.4212 66.378 14.4412 66.178 14.4512C66.178 14.4112 66.178 14.3812 66.168 14.3412C66.368 14.3212 66.558 14.3012 66.758 14.2812C66.758 14.3212 66.758 14.3613 66.768 14.3913V14.4012Z" fill="#F5F5F5"/>
<path d="M113.038 69.0813C113.038 69.2113 113.048 69.3413 113.058 69.6013C113.278 69.4013 113.438 69.2313 113.618 69.1013C114.188 68.6713 114.928 68.7113 115.438 69.1713C115.838 69.5413 116.088 70.6113 115.788 71.0013C115.608 71.2413 115.288 71.4313 114.988 71.5413C114.338 71.7813 113.578 71.5213 113.128 70.9613C112.678 70.4013 112.658 69.8013 113.068 69.1113L113.048 69.0913L113.038 69.0813Z" fill="#F5F5F5"/>
<path d="M24.838 25.9413C25.338 26.0513 25.848 25.4112 26.228 25.9312C26.488 26.2812 26.508 26.8012 26.638 27.2312C25.348 27.7212 24.788 27.3113 24.838 25.9413Z" fill="#F5F5F5"/>
<path d="M115.507 72.1612C114.507 72.7812 113.517 72.7212 112.697 72.0012C111.917 71.3212 111.707 70.3412 112.147 69.4512C112.257 71.6012 113.017 72.2112 115.517 72.1612H115.507Z" fill="#F5F5F5"/>
<path d="M24.1382 26.0413C24.3482 27.7213 25.0382 28.2213 26.6582 27.9913C26.0682 28.5513 25.3882 28.6113 24.7082 28.1713C23.9982 27.7113 23.7582 26.9413 24.1382 26.0413Z" fill="#F5F5F5"/>
<path d="M113.058 69.1113C113.198 68.8713 113.338 68.6213 113.478 68.3813C113.558 68.4413 113.628 68.5114 113.708 68.5714C113.488 68.7414 113.258 68.9113 113.038 69.0913L113.058 69.1113Z" fill="#F5F5F5"/>
</svg>
