<svg width="123" height="498" viewBox="0 0 123 498" fill="none" xmlns="http://www.w3.org/2000/svg">
<path d="M45.4179 469.1C42.6793 474.22 41.9665 479.645 43.861 485.242C45.1928 489.158 47.5938 492.272 50.9327 494.641C57.6667 499.397 66.6891 499.073 73.1418 493.857C76.7995 490.877 79.0692 487.038 79.9133 482.319C80.6449 478.193 80.251 475.767 77.6624 468.947C78.2439 468.756 78.8254 468.546 79.4068 468.374C90.699 464.821 100.247 458.613 107.431 448.908C109.851 445.642 111.839 442.108 113.208 438.249C113.621 437.103 114.277 436.549 115.365 436.186C116.66 435.746 117.916 435.154 119.098 434.447C121.199 433.187 122.249 431.334 122.212 428.755C122.156 424.113 122.212 419.452 122.193 414.81C122.193 410.301 120.374 408.2 115.834 407.493V157.436C116.247 157.34 116.697 157.207 117.166 157.111C120.074 156.519 122.099 154.303 122.137 151.266C122.231 145.974 122.174 140.702 122.156 135.41C122.156 133.557 121.368 132.048 119.905 131.016C118.798 130.233 117.541 129.622 116.303 129.03C115.647 128.705 115.197 128.418 115.009 127.597C111.389 112.792 102.272 102.534 89.2546 95.5614C87.1725 94.4343 85.6157 92.887 84.9029 90.5755C83.965 87.5382 84.9967 84.6536 87.6227 82.4568C89.7986 80.642 92.0683 78.8846 93.9253 76.7832C105.574 63.6595 109.25 48.3963 103.923 31.6048C98.6335 14.8707 86.9474 4.51687 70.0467 0.925517C45.643 -4.25138 21.3518 12.8648 17.5064 37.8897C14.7303 56.0184 20.8453 70.7658 34.9323 82.1321C35.1199 82.2849 35.345 82.4377 35.5326 82.5905C39.1716 85.4751 39.528 90.48 36.2266 93.7657C35.4013 94.5872 34.3321 95.2176 33.3004 95.7715C23.2275 101.235 15.3681 108.895 10.6599 119.612C9.57196 122.095 8.87791 124.751 8.07133 127.368C7.80872 128.227 7.48985 128.858 6.58949 129.106C6.04552 129.259 5.5578 129.546 5.05135 129.794C2.18141 131.188 0.680794 133.366 0.793335 136.747C0.924644 141.065 0.812103 145.401 0.830864 149.737C0.830864 150.501 0.868393 151.266 0.962181 152.03C1.28106 154.513 3.08179 156.5 5.46401 157.054C6.00799 157.187 6.57072 157.264 7.22724 157.378V407.455C6.79581 407.531 6.32685 407.608 5.85791 407.703C3.08177 408.257 1.13099 410.32 0.924652 413.186C0.755836 415.402 0.830872 417.637 0.812111 419.872C0.812111 422.737 0.86837 425.603 0.793335 428.468C0.699547 431.429 2.01261 433.473 4.50739 434.772C5.67036 435.383 6.8896 435.861 8.1276 436.319C8.82164 436.568 9.29059 436.912 9.57195 437.657C15.7057 453.397 27.3918 462.873 42.8293 468.107C43.5421 468.355 44.2549 468.565 44.9677 468.794C45.0803 468.833 45.174 468.928 45.3991 469.1H45.4179ZM42.6605 456.951C43.5046 457.18 44.33 457.409 45.174 457.619C43.7297 456.225 42.1541 455.098 40.6534 453.856C39.0965 452.576 37.5584 451.258 36.1329 449.844C34.7448 448.469 33.4505 446.998 32.175 445.508C30.9182 444.037 29.7365 442.49 28.9487 440.675C33.2254 445.603 37.671 450.245 43.5421 453.187C41.4038 450.723 39.0778 448.45 36.8832 446.043C34.6885 443.636 32.8127 440.981 31.3496 438.039C32.7002 439.242 33.9007 440.579 35.1762 441.84C37.4646 444.113 38.365 444.667 39.7531 444.82C38.5338 442.509 36.5455 440.751 35.5326 438.058C55.941 439.299 76.1243 439.128 96.4951 437.37C96.1012 438.688 95.8011 439.682 95.4447 440.866C96.7577 440.732 97.4142 439.987 98.1458 439.319C98.8961 438.65 99.1024 437.447 100.472 436.912C98.0332 443.483 94.0003 448.641 89.8174 453.722C90.5302 453.493 91.1304 453.168 91.6181 452.71C93.5689 450.838 95.5947 449.023 97.3955 447.017C99.8902 444.228 101.86 441.057 103.567 437.714C103.848 437.179 103.942 436.319 105.067 436.396C104.88 436.95 104.767 437.408 104.561 437.848C102.798 441.535 100.622 444.935 98.0333 448.068C92.2559 455.098 84.9966 460.007 76.7995 463.637C81.0575 462.892 84.9029 461.153 88.5606 458.937C97.7331 453.378 104.486 445.546 109.138 435.632C109.232 435.937 109.325 436.071 109.288 436.167C109.044 436.816 108.819 437.485 108.538 438.115C104.373 447.59 97.5643 454.582 88.7107 459.53C78.2626 465.375 67.0455 467.438 55.2094 466.158C45.099 465.069 35.9077 461.535 27.8419 455.212C21.7269 450.417 17.0563 444.476 14.1113 437.16C13.9237 436.682 13.8299 436.186 13.6611 435.594C14.8428 435.594 14.9554 436.434 15.2743 436.988C17.2063 440.427 19.4385 443.655 22.0458 446.578C29.4739 454.964 38.4025 460.886 49.2632 463.579C49.6572 463.675 50.0886 463.675 50.5012 463.732C45.9994 461.707 41.5538 459.682 37.4459 457.008C32.6627 453.894 27.5793 449.424 26.4539 447.113C29.699 450.475 33.1129 453.245 36.8832 455.518C40.6159 457.772 44.5363 459.606 48.6817 460.943C47.425 459.969 46.0744 459.205 44.7426 458.364C44.0298 457.906 43.3546 457.371 42.6793 456.855C42.1541 456.607 41.6289 456.358 41.0849 456.129C41.1599 456.015 41.2162 455.9 41.2912 455.785C41.7414 456.167 42.1916 456.53 42.6417 456.912L42.6605 456.951ZM111.257 410.339C108.519 410.588 105.986 410.932 103.435 411.008C92.012 411.39 80.5698 411.81 69.1464 412.001C60.893 412.135 52.6396 411.963 44.3862 411.906C34.5009 411.829 24.6344 411.428 14.7866 410.645C13.8112 410.569 12.8358 410.416 11.9354 410.301C11.5227 407.187 11.6728 155.965 12.0855 154.551C12.2918 154.513 12.5357 154.418 12.7608 154.418C18.8758 154.016 24.972 153.424 31.1058 153.29C44.6113 153.004 58.0981 152.889 71.6036 152.851C83.1021 152.813 94.6006 153.195 106.08 154.035C107.806 154.169 109.513 154.379 111.257 154.57V410.339ZM21.2392 45.5309C21.2392 22.4927 39.9407 4.34494 61.7934 4.49776C83.7586 4.66969 101.916 22.9703 101.86 45.4735C101.804 68.3588 83.8712 86.6021 61.5683 86.583C38.3275 86.583 21.1267 67.2127 21.2392 45.5117V45.5309ZM96.814 127.482C78.6941 125.782 60.7805 125.725 42.623 126.317C42.2478 123.738 41.8915 121.236 41.5163 118.752C39.7343 121.083 40.0907 123.91 39.1903 126.394C38.5901 124.483 38.8715 122.63 39.2841 120.815C39.7156 118.982 40.2783 117.167 40.766 115.333C40.6159 115.257 40.4659 115.199 40.3346 115.123C39.603 116.212 38.6839 117.205 38.1962 118.389C37.2958 120.548 36.6393 122.802 35.8702 124.999C35.6639 125.591 35.8327 126.394 34.8386 126.833C34.7635 124.732 35.2887 122.917 35.9077 121.159C36.5643 119.306 37.3521 117.492 38.2525 115.753C39.0965 114.11 40.1658 112.582 41.1412 110.997C41.0474 110.901 40.9536 110.825 40.8598 110.729C40.3533 111.149 39.8281 111.551 39.3404 111.99C37.2958 113.9 35.6076 116.135 34.4259 118.676C33.3755 120.968 32.5689 123.394 31.7248 125.763C31.2746 127.043 31.3496 127.062 29.849 126.795C31.4434 118.084 36.2079 111.417 42.8856 105.973C42.5855 105.896 42.3979 105.896 42.2479 105.973C41.5726 106.316 40.8973 106.66 40.2783 107.061C35.8327 109.889 32.3813 113.728 29.924 118.389C28.6298 120.835 27.8044 123.528 26.7352 126.107C26.5289 126.623 26.7165 127.502 25.4972 127.387C25.516 126.852 25.4972 126.317 25.591 125.801C26.0224 123.146 26.9416 120.644 28.2546 118.313C30.2804 114.664 32.9815 111.57 36.1703 108.953C39.0778 106.565 42.1353 104.33 45.1178 102.018C45.4554 101.751 45.7555 101.426 46.0744 101.12C41.9477 102.878 38.1962 105.132 34.6885 107.826C31.1621 110.538 28.1046 113.709 25.5723 117.683C25.516 117.243 25.4597 117.11 25.4972 117.014C25.7411 116.498 26.0037 116.002 26.3038 115.505C29.0049 111.035 32.5876 107.443 37.0144 104.75C38.5713 103.795 40.147 102.878 41.6664 101.884C43.2983 100.796 44.7801 99.5157 45.8118 97.7965C46.2432 97.1088 46.5058 96.3064 46.8435 95.5614C43.8798 99.1337 38.9277 102.63 35.6451 102.973C37.2583 101.961 38.5526 101.082 39.9031 100.318C44.2174 97.8538 45.6618 93.8995 45.4742 89.1046C45.2116 89.5822 45.0428 90.098 44.949 90.6329C44.2737 94.5108 42.4542 97.529 38.7777 99.1528C38.44 99.3056 38.1024 99.4966 37.7835 99.6685C33.7131 101.846 29.9803 104.482 26.679 107.749C21.9333 112.468 18.3318 117.893 17.0188 124.636C16.7561 125.935 16.6624 127.272 16.456 128.724C15.068 128.992 13.6986 129.259 12.1042 129.565C12.3106 128.648 12.4044 128.036 12.5732 127.425C14.3927 120.357 17.9379 114.301 22.9087 109.086C26.679 105.132 31.012 101.923 35.8702 99.4584C41.1786 96.7649 43.7485 91.4734 42.6043 85.7043C42.5292 85.284 42.4542 84.8829 42.3604 84.2525C55.2469 90.4036 67.9646 90.3654 80.7761 84.2525C80.5698 85.5706 80.2697 86.6021 80.2509 87.6528C80.0821 93.0398 82.5206 96.8604 87.0975 99.4393C89.3297 100.7 91.5806 101.98 93.6627 103.47C101.053 108.8 106.53 115.658 109.588 124.426C110.151 126.011 110.526 127.673 111.014 129.335C110.113 129.603 109.944 129.202 109.776 128.667C109.269 127.1 108.819 125.496 108.2 123.987C105.893 118.428 102.31 113.824 97.9957 109.755C94.0379 106.03 89.5923 102.935 85.0717 99.9551C83.4585 98.8853 81.8453 97.7583 80.401 96.4593C78.3752 94.6445 77.306 92.333 77.5498 89.5058C77.5686 89.2575 77.5123 89.0091 77.4936 88.7608C76.2743 91.4734 76.8933 93.9568 78.5252 96.0963C79.6882 97.6245 81.1701 98.9617 82.6707 100.184C84.8091 101.942 87.0975 103.508 89.3109 105.17C89.7799 105.514 90.2113 105.934 90.6615 106.316C90.6052 106.393 90.5677 106.488 90.5114 106.565C89.7799 106.202 89.0483 105.82 88.3168 105.457C88.2417 105.552 88.1479 105.648 88.0729 105.762C92.7623 109.87 96.9265 114.397 99.6652 120.09C98.1645 118.6 97.2267 116.575 95.2946 115.448C96.345 118.619 98.1458 121.465 99.0837 125.133C98.0332 123.853 97.2829 122.936 96.5326 122C96.3826 122.076 96.2138 122.153 96.0637 122.229C96.3075 123.891 96.5326 125.534 96.814 127.463V127.482ZM61.4182 436.663C49.7322 436.644 38.0461 436.3 26.4164 435.078C21.5769 434.562 16.7749 433.702 11.9917 432.805C10.1722 432.461 8.44649 431.62 6.72078 430.913C5.83916 430.55 5.22015 429.882 5.22015 428.716C5.25767 423.883 5.22016 419.05 5.25768 414.198C5.25768 412.67 5.89544 412.135 7.33978 412.154C7.84624 412.154 8.33395 412.212 8.84041 412.269C17.8441 413.377 26.9041 413.854 35.9453 413.988C49.3195 414.198 62.6937 414.236 76.068 414.16C83.8149 414.122 91.5618 413.816 99.29 413.453C104.523 413.205 109.757 412.632 114.971 412.212C117.372 412.021 117.766 412.383 117.785 414.752C117.785 419.203 117.729 423.654 117.823 428.124C117.86 429.653 117.297 430.569 115.984 431.066C114.296 431.716 112.589 432.384 110.845 432.824C104.824 434.333 98.671 434.963 92.4997 435.46C82.1642 436.3 71.7912 436.644 61.4182 436.663ZM61.2119 127.979C70.9096 128.38 80.6073 128.609 90.2675 129.24C96.3075 129.641 102.31 130.52 108.294 131.475C110.976 131.895 113.565 132.965 116.153 133.863C117.185 134.226 117.823 134.99 117.804 136.327C117.729 141.046 117.804 145.745 117.766 150.463C117.766 152.374 117.091 152.889 115.178 152.679C112.064 152.354 108.969 151.896 105.855 151.743C97.1892 151.304 88.5043 150.769 79.8195 150.673C66.0139 150.54 52.1894 150.673 38.3838 150.807C28.1233 150.903 17.9004 151.437 7.71493 152.698C5.93295 152.908 5.25769 152.24 5.23893 150.291C5.22017 145.707 5.27644 141.122 5.20141 136.537C5.20141 135.276 5.63284 134.398 6.70203 133.939C8.24016 133.271 9.81579 132.583 11.4289 132.163C18.3505 130.348 25.4597 129.641 32.5689 129.202C42.1165 128.629 51.6642 128.361 61.2119 127.96V127.979ZM69.6529 468.489C70.6157 468.183 71.4348 468.4 72.1101 469.138C76.8933 474.43 77.0997 482.606 72.579 488.184C68.0022 493.838 60.0864 495.176 53.9902 491.317C46.3933 486.484 44.9302 475.843 50.9514 469.157C51.4954 468.546 51.9831 467.992 52.996 468.164C56.71 468.794 60.4428 468.928 64.1944 468.737C65.2073 468.68 66.0139 468.985 66.7829 469.597C69.1464 471.507 70.8346 473.876 71.6599 476.875C71.8287 477.486 71.9976 478.117 72.2039 478.862C74.1922 475.404 73.3106 471.87 69.6716 468.508L69.6529 468.489ZM29.4176 446.119C29.4176 446.119 29.2488 446.253 29.1737 446.31C28.8924 445.947 28.5922 445.584 28.3109 445.202C28.3671 445.145 28.4422 445.107 28.4985 445.049C28.8173 445.412 29.1175 445.756 29.4363 446.119H29.4176ZM33.7881 450.417C33.7881 450.417 33.6756 450.551 33.6193 450.628C33.2254 450.284 32.8315 449.959 32.4376 449.615C32.4939 449.539 32.5501 449.462 32.6064 449.386C33.0003 449.73 33.3942 450.054 33.7881 450.398V450.417Z" fill="black"/>
<path d="M111.258 410.34V154.532C109.513 154.36 107.806 154.131 106.081 153.997C94.601 153.157 83.1025 152.794 71.604 152.813C58.0985 152.851 44.593 152.966 31.1062 153.252C24.9912 153.386 18.8762 153.978 12.7612 154.379C12.5173 154.379 12.2922 154.475 12.0859 154.513C11.6732 155.927 11.5231 407.149 11.9358 410.263C12.8362 410.378 13.8116 410.531 14.787 410.607C24.6348 411.409 34.5013 411.81 44.3866 411.868C52.64 411.925 60.8934 412.097 69.1468 411.963C80.589 411.772 92.0124 411.352 103.436 410.97C105.987 410.893 108.538 410.531 111.258 410.301V410.34ZM19.3076 194.782C19.5327 187.561 19.3076 180.608 19.9454 173.673C20.1892 180.283 20.283 186.893 20.1329 193.483C20.0954 195.546 20.827 196.902 22.2338 198.259C27.9549 203.799 34.1637 208.746 40.6726 213.274C48.926 219.005 57.2919 224.602 65.6016 230.275C73.6111 235.739 81.4894 241.355 88.7298 247.85C94.9574 253.447 100.585 259.541 104.618 267.01C104.73 267.201 104.899 267.373 105.255 267.832C105.312 267.01 105.387 266.533 105.387 266.055C105.387 260.515 105.349 254.975 105.368 249.436C105.368 239.75 105.405 230.084 105.462 220.399C105.462 219.138 105.293 218.049 104.411 217.075C103.004 215.528 101.748 213.866 100.322 212.338C94.2258 205.709 87.3605 199.959 80.0638 194.801C70.4598 188.02 60.7058 181.467 51.0081 174.819C43.2237 169.471 35.533 164.026 28.6114 157.512C27.9174 156.863 27.1671 156.634 26.2479 156.595C23.2467 156.5 20.2642 156.328 17.263 156.194C47.0502 153.787 76.7999 154.36 106.493 157.512C106.493 157.646 106.493 157.761 106.493 157.894H77.2314C78.9758 159.652 80.8141 161.065 82.6148 162.517C84.3781 163.95 86.1225 165.383 87.8295 166.892C89.5739 168.439 91.2809 170.025 92.9316 171.687C94.5635 173.349 96.1579 175.068 97.6585 176.844C99.1216 178.583 100.491 180.398 101.785 182.289C103.079 184.161 104.205 186.167 105.612 188.459C105.799 182.728 105.968 177.475 106.137 172.221C106.325 172.928 106.325 173.616 106.325 174.323C106.362 179.347 106.418 184.39 106.475 189.414C106.493 191.305 107.169 193.158 108.163 194.228C108.369 185.536 108.575 176.883 108.782 168.229C109.082 173.635 109.232 179.041 109.326 184.447C109.588 199.348 109.889 214.229 110.076 229.129C110.301 247.965 110.526 266.819 110.583 285.655C110.695 313.66 110.639 341.684 109.926 369.688C109.757 376.604 109.57 383.538 109.401 390.453C109.101 388.734 109.101 387.015 109.082 385.296C109.082 383.672 108.2 382.545 106.812 381.188V388.772C106.681 388.772 106.568 388.772 106.437 388.772C106.437 386.499 106.4 384.226 106.437 381.953C106.475 380.596 106.024 379.507 105.218 378.476C101.691 373.91 97.7148 369.765 93.438 365.925C85.3722 358.647 76.5186 352.439 67.5712 346.345C59.2052 340.652 50.783 335.036 42.5296 329.19C35.0265 323.88 27.8986 318.072 21.9899 310.871C21.8211 310.66 21.5397 310.565 21.0708 310.259C21.0708 311.234 21.0708 311.921 21.0708 312.609C20.9958 326.936 20.9583 341.263 20.8457 355.59C20.8457 356.794 21.2397 357.596 22.065 358.418C26.5668 362.85 31.3688 366.938 36.5084 370.567C43.8802 375.801 51.3457 380.94 58.8488 386.021C68.7341 392.727 78.6569 399.374 87.6982 407.283C88.3734 407.875 89.0862 408.009 89.9303 408.009C94.4884 408.047 99.0653 408.124 103.623 408.2C104.468 408.2 105.293 408.315 106.137 408.391C76.1622 411.486 46.2249 411.256 16.3251 407.761C23.997 407.417 31.6689 407.761 39.3596 407.359C37.3337 405.506 35.2516 403.902 33.2633 402.183C31.2562 400.463 29.2492 398.725 27.3922 396.853C25.5164 394.981 23.847 392.899 22.0275 390.988C20.2267 389.097 19.1763 386.652 17.1692 384.722C17.0942 385.487 17.0004 386.27 16.9254 387.034C17.3943 383.958 16.3064 381.284 15.0121 378.648C14.8808 378.648 14.7307 378.648 14.5994 378.667V389.517C14.4493 389.517 14.2993 389.517 14.1492 389.517C12.8174 316.601 11.7858 243.686 13.7928 170.77C14.0179 172.508 14.0742 174.265 14.1117 176.004C14.168 179.767 14.2055 183.511 14.243 187.275C14.243 188.726 14.712 189.911 16.2126 190.828C16.3251 183.855 16.4377 177.15 16.5502 170.445C16.7941 172.546 16.7753 174.648 16.7941 176.73C16.8503 181.506 16.9816 186.281 17.0004 191.057C17.0004 192.719 17.882 193.693 19.3076 194.744V194.782Z" fill="white"/>
<path d="M21.2406 45.5306C21.1281 67.2315 38.3289 86.5828 61.5697 86.6019C83.8726 86.6019 101.824 68.3586 101.861 45.4924C101.917 22.9891 83.76 4.68852 61.7948 4.51659C39.942 4.34466 21.2219 22.5116 21.2406 45.5497V45.5306ZM42.3055 74.1086L42.343 74.0704C42.7557 74.5097 43.0933 75.0255 43.5623 75.3694C46.3197 77.4898 49.3397 79.1326 52.5472 80.4507C53.0537 80.6609 53.5414 80.8901 54.0478 81.1193C39.5294 78.827 27.1118 64.9201 25.4799 49.2557C24.5983 40.8313 26.1364 32.9035 30.4882 25.6253C33.2643 20.9833 36.8283 17.0863 41.4052 14.2209C38.6665 17.0863 35.9467 19.9327 34.1272 23.5431C35.6841 21.9767 36.9408 20.1428 38.7791 18.8629C38.704 19.2641 38.5165 19.5697 38.3101 19.8562C32.3452 27.9177 29.7004 36.9916 30.3569 47.0397C30.4507 48.4151 30.8446 49.7714 31.0884 51.1277C31.0322 50.3063 31.0509 49.4658 30.9384 48.6444C30.113 42.2258 31.201 36.1128 33.8833 30.2864C34.0709 29.8853 34.3335 29.5032 34.7462 28.8155C34.221 31.4326 33.6582 33.6295 33.3769 35.8836C33.0955 38.1377 32.9454 40.4492 33.0017 42.7225C33.058 44.9193 33.4331 47.1352 33.677 49.3321C33.7895 49.3321 33.9208 49.3321 34.0334 49.313C33.6957 46.4666 33.5269 43.6203 34.446 40.8504C35.0838 43.4866 35.3464 46.1992 36.5844 48.6444C36.6407 47.7465 36.7157 46.8678 36.772 45.9699C39.4919 50.5546 41.7428 55.2349 43.506 60.1634C43.3935 60.2589 43.2997 60.3354 43.1871 60.4309C42.2492 59.6667 41.3301 58.9026 40.3922 58.1385C40.8799 59.4566 41.5177 60.641 42.2492 61.7872C42.962 62.8951 43.7311 63.984 44.5377 65.0538C45.3255 66.1044 46.1884 67.1169 47.0137 68.1484C42.7744 66.1617 39.8107 62.8569 37.2222 59.1128C40.0921 65.3403 44.5189 70.2498 49.8649 74.3951C49.3021 74.3378 48.8519 74.1659 48.4205 73.9366C41.9116 70.5745 37.0909 65.4931 33.827 58.8644C33.5644 58.3104 33.208 57.8138 32.8891 57.298C33.0955 57.9475 33.2455 58.6352 33.5269 59.2656C37.3347 67.4798 43.1871 73.7074 51.0841 77.9291C51.3655 78.082 51.6468 78.1966 51.9094 78.3685C52.1721 78.5213 52.4159 78.6933 52.6598 78.8652C49.471 78.1393 46.6198 76.7448 43.9187 75.0064C43.4122 74.6816 42.8307 74.4524 42.2868 74.1659L42.3055 74.1086ZM99.1226 54.9865C100.286 32.1394 90.5315 16.7425 69.673 8.41359C90.5503 10.9734 105.538 32.7125 99.1226 54.9865ZM66.4279 81.7879C67.9848 81.1766 69.5605 80.6036 71.1173 79.9732C71.5112 79.8203 72.1865 79.5338 72.1865 79.3237C72.149 78.3685 72.9181 78.2157 73.4245 77.8527C78.7142 74.0322 84.0226 70.2307 89.3498 66.4483C89.6687 66.2191 90.0251 66.0662 90.6441 65.7224C90.2314 66.582 89.9688 67.0787 89.725 67.5945C89.8188 67.6518 89.9125 67.7091 90.0063 67.7855C91.8071 65.8752 93.5891 63.984 95.4461 62.0164C92.745 72.1792 77.5325 82.6476 66.4467 81.7879H66.4279Z" fill="white"/>
<path d="M96.7965 127.482C96.5152 125.553 96.2901 123.91 96.0462 122.248C96.1963 122.172 96.3651 122.095 96.5152 122.019C97.2655 122.936 98.0158 123.872 99.0662 125.152C98.1283 121.465 96.3276 118.619 95.2772 115.467C97.2092 116.594 98.1283 118.619 99.6477 120.109C96.9091 114.416 92.7449 109.889 88.0554 105.781C88.1305 105.686 88.2243 105.59 88.2993 105.476C89.0308 105.839 89.7624 106.221 90.4939 106.584C90.5502 106.507 90.5877 106.412 90.644 106.335C90.1938 105.953 89.7812 105.533 89.2935 105.189C87.08 103.527 84.7916 101.961 82.6532 100.203C81.1526 98.9808 79.6708 97.6436 78.5078 96.1154C76.8759 93.9758 76.2756 91.4925 77.4761 88.7798C77.4949 89.0282 77.5511 89.2765 77.5324 89.5249C77.2885 92.3521 78.3577 94.6635 80.3835 96.4783C81.8279 97.7773 83.441 98.9044 85.0542 99.9742C89.5748 102.954 94.0016 106.03 97.9782 109.774C102.293 113.843 105.894 118.447 108.182 124.006C108.82 125.515 109.27 127.119 109.758 128.686C109.927 129.221 110.096 129.622 110.996 129.354C110.508 127.673 110.133 126.031 109.571 124.445C106.513 115.696 101.036 108.819 93.6452 103.489C91.5631 101.98 89.3122 100.719 87.08 99.4584C82.5032 96.8795 80.0647 93.0589 80.2335 87.6719C80.271 86.6212 80.5524 85.5705 80.7587 84.2715C67.9472 90.3845 55.2107 90.4418 42.3429 84.2715C42.4555 84.9019 42.5117 85.3222 42.5868 85.7234C43.731 91.4925 41.1612 96.784 35.8528 99.4775C30.9945 101.942 26.6615 105.151 22.8912 109.105C17.9204 114.32 14.3752 120.376 12.5557 127.444C12.4056 128.036 12.2931 128.667 12.0868 129.584C13.6999 129.278 15.0505 129.011 16.4386 128.743C16.6261 127.291 16.7387 125.954 17.0013 124.655C18.3143 117.912 21.9158 112.487 26.6615 107.768C29.9629 104.502 33.6956 101.865 37.7661 99.6876C38.1037 99.5157 38.4226 99.3247 38.7602 99.1718C42.4367 97.5481 44.2562 94.5298 44.9315 90.6519C45.0253 90.117 45.1941 89.6013 45.4567 89.1237C45.6443 93.9185 44.2 97.8537 39.8857 100.337C38.5351 101.12 37.2408 101.98 35.6277 102.992C38.9103 102.649 43.8623 99.1718 46.826 95.5805C46.4884 96.3255 46.207 97.1278 45.7943 97.8155C44.7439 99.5157 43.2808 100.815 41.6489 101.904C40.1295 102.916 38.5539 103.833 36.997 104.769C32.5702 107.463 28.9875 111.035 26.2864 115.524C25.9862 116.002 25.7424 116.517 25.4798 117.033C25.4422 117.129 25.4985 117.262 25.5548 117.702C28.0871 113.728 31.1446 110.557 34.671 107.845C38.1787 105.151 41.9303 102.897 46.057 101.139C45.7381 101.445 45.438 101.77 45.1003 102.037C42.1179 104.349 39.0603 106.584 36.1529 108.972C32.9641 111.589 30.2817 114.683 28.2371 118.332C26.9241 120.682 26.005 123.165 25.5736 125.82C25.4798 126.336 25.5173 126.871 25.4798 127.406C26.6803 127.521 26.4927 126.623 26.7178 126.126C27.787 123.547 28.6311 120.873 29.9066 118.408C32.3638 113.728 35.8153 109.908 40.2608 107.08C40.8986 106.679 41.5739 106.335 42.2304 105.992C42.3805 105.915 42.568 105.915 42.8682 105.992C36.1904 111.436 31.426 118.103 29.8316 126.814C31.3322 127.062 31.2571 127.043 31.7073 125.782C32.5514 123.394 33.358 120.987 34.4084 118.695C35.5714 116.135 37.2596 113.919 39.323 112.009C39.8107 111.551 40.3359 111.168 40.8423 110.748C40.9361 110.844 41.0299 110.92 41.1237 111.016C40.1483 112.601 39.0791 114.129 38.235 115.772C37.3346 117.511 36.5468 119.325 35.8903 121.178C35.2713 122.936 34.7273 124.751 34.8211 126.852C35.8152 126.413 35.6464 125.61 35.8528 125.018C36.6218 122.802 37.2784 120.548 38.1787 118.408C38.6852 117.224 39.6043 116.212 40.3171 115.142C40.4672 115.218 40.6172 115.276 40.7485 115.352C40.2421 117.167 39.6981 118.982 39.2667 120.835C38.8353 122.649 38.5726 124.521 39.1729 126.413C40.0733 123.929 39.7168 121.102 41.4988 118.771C41.8552 121.274 42.2304 123.757 42.6056 126.336C60.763 125.744 78.6766 125.801 96.7965 127.501V127.482Z" fill="white"/>
<path d="M42.6974 456.912C43.3914 457.409 44.048 457.963 44.7607 458.421C46.0925 459.243 47.4431 460.007 48.6999 461C44.5544 459.663 40.634 457.829 36.9013 455.575C33.1122 453.302 29.7171 450.532 26.472 447.17C27.6162 449.481 32.6808 453.951 37.464 457.065C41.5907 459.74 46.0175 461.764 50.5194 463.789C50.1067 463.732 49.6753 463.732 49.2814 463.637C38.4207 460.943 29.492 455.04 22.0639 446.635C19.4566 443.693 17.2432 440.465 15.2924 437.045C14.9735 436.491 14.861 435.651 13.6793 435.651C13.8481 436.224 13.9418 436.74 14.1294 437.217C17.0556 444.534 21.7451 450.475 27.8601 455.269C35.9446 461.593 45.1359 465.127 55.2275 466.215C67.0637 467.495 78.262 465.432 88.7288 459.587C97.5824 454.639 104.391 447.647 108.556 438.172C108.837 437.542 109.062 436.873 109.306 436.224C109.343 436.128 109.25 435.995 109.156 435.689C104.504 445.584 97.7512 453.416 88.5787 458.995C84.921 461.21 81.0756 462.949 76.8176 463.694C85.0148 460.064 92.274 455.155 98.0514 448.125C100.621 444.992 102.816 441.592 104.579 437.905C104.785 437.485 104.898 437.007 105.086 436.453C103.96 436.377 103.866 437.217 103.585 437.771C101.878 441.114 99.9084 444.304 97.4136 447.074C95.6129 449.08 93.587 450.895 91.6362 452.767C91.1485 453.225 90.5483 453.55 89.8355 453.779C94.0185 448.679 98.0326 443.54 100.49 436.969C99.1206 437.523 98.8955 438.707 98.1639 439.376C97.4324 440.044 96.7758 440.789 95.4628 440.923C95.8192 439.739 96.1193 438.745 96.5132 437.427C76.1424 439.185 55.9591 439.376 35.5507 438.115C36.5824 440.789 38.5519 442.566 39.7712 444.877C38.3831 444.725 37.4828 444.171 35.1943 441.897C33.9188 440.637 32.7183 439.299 31.3678 438.096C32.8309 441.038 34.7254 443.693 36.9013 446.1C39.0959 448.507 41.4031 450.78 43.5603 453.245C37.6891 450.303 33.2435 445.661 28.9668 440.732C29.7546 442.547 30.9363 444.075 32.1931 445.565C33.4499 447.055 34.7629 448.526 36.151 449.902C37.5953 451.315 39.1147 452.633 40.6716 453.913C42.1722 455.155 43.7478 456.282 45.1922 457.676C44.3481 457.447 43.5227 457.218 42.6786 457.008L42.7162 456.97L42.6974 456.912Z" fill="white"/>
<path d="M61.4008 436.663C71.7738 436.644 82.1468 436.3 92.4823 435.46C98.6536 434.963 104.806 434.333 110.827 432.824C112.572 432.384 114.279 431.716 115.967 431.066C117.261 430.57 117.824 429.633 117.805 428.124C117.711 423.673 117.786 419.222 117.768 414.752C117.768 412.364 117.374 412.021 114.954 412.212C109.721 412.632 104.506 413.205 99.2726 413.453C91.5444 413.816 83.7975 414.122 76.0506 414.16C62.6764 414.237 49.3021 414.179 35.9279 413.988C26.8679 413.854 17.8267 413.358 8.823 412.269C8.3353 412.212 7.82887 412.154 7.32241 412.154C5.85931 412.135 5.25906 412.67 5.2403 414.198C5.20279 419.031 5.2403 423.864 5.20278 428.717C5.20278 429.863 5.82179 430.531 6.7034 430.913C8.42911 431.639 10.1736 432.48 11.9743 432.805C16.7575 433.702 21.5595 434.581 26.399 435.078C38.0287 436.3 49.7148 436.644 61.4008 436.663ZM58.3808 433.416C58.3808 433.588 58.3621 433.76 58.3433 433.951C57.7994 434.065 57.2741 434.256 56.7302 434.275C52.3596 434.409 48.0079 434.581 43.6373 434.562C40.955 434.562 38.2726 434.218 35.5902 434.065C27.2056 433.607 18.9709 432.174 10.7738 430.417C7.37868 429.691 6.17818 428.239 6.29073 424.686C6.36576 422.164 6.77841 419.624 7.15356 417.121C7.52872 414.599 8.11021 414.217 10.6988 414.37C13.3248 414.523 15.9322 414.676 18.5583 414.829C28.406 415.383 38.2726 415.898 48.1204 416.529C51.1591 416.72 54.1979 417.217 57.2366 417.599C57.6493 417.656 58.0244 417.866 58.4183 418C57.5367 418.611 56.5989 418.898 55.661 419.108C54.7606 419.318 53.8227 419.452 52.5097 419.7C54.6668 420.56 56.7114 420.158 58.5872 421.266C56.7301 422.355 54.7418 422.05 52.8848 422.718C54.7231 423.54 56.7864 423.119 58.3433 424.705C56.5051 424.991 54.6668 425.278 52.4346 425.622C54.648 426.501 56.7489 426.214 58.7372 427.723C57.4242 427.933 56.5238 428.067 55.6235 428.239C54.7794 428.392 53.8039 428.067 52.9599 428.755C54.7606 429.633 56.8427 429.29 58.756 430.932C56.4676 431.162 54.6105 431.334 52.7723 431.525C52.7723 431.601 52.7723 431.678 52.7723 431.754C54.6481 432.308 56.5238 432.862 58.3808 433.416ZM91.3006 416.892C91.8633 416.682 92.2385 416.472 92.6511 416.414C94.0767 416.185 95.4836 415.937 96.9091 415.822C102.386 415.344 107.845 414.867 113.341 414.466C115.235 414.332 115.929 415.039 116.136 416.987C116.211 417.618 116.173 418.267 116.192 418.898C116.248 421.438 116.248 423.998 116.361 426.539C116.492 429.29 116.023 430.035 113.322 430.627C111.503 431.028 109.627 431.238 107.789 431.639C102.818 432.747 97.8095 433.282 92.7262 432.556C92.3323 432.499 91.9571 432.384 91.2818 432.231C93.0638 430.818 95.1647 431.104 96.9842 429.958C94.9771 429.633 93.1576 429.996 91.5444 428.755C93.2701 428.277 95.0146 427.8 96.7403 427.322C96.7403 427.246 96.7403 427.15 96.7403 427.074C95.0146 426.825 93.2889 426.577 91.1318 426.252C93.0826 424.781 95.1647 425.202 96.8904 424.208C95.0521 423.616 93.1764 423.998 91.3194 423.005C93.0263 421.954 94.8458 422.145 96.7778 421.381C94.7895 420.77 93.0075 421.018 91.5632 419.872C92.4636 419.509 93.3452 419.299 94.2456 419.127C95.1459 418.955 96.0463 418.821 96.9467 418.668C95.1459 417.866 93.1764 418.076 91.3381 416.892H91.3006Z" fill="white"/>
<path d="M61.1928 127.979C51.6451 128.38 42.0975 128.648 32.5498 129.221C25.4406 129.641 18.3502 130.367 11.4099 132.182C9.79669 132.602 8.22104 133.29 6.68291 133.958C5.61372 134.417 5.16356 135.295 5.18231 136.556C5.23859 141.141 5.1823 145.726 5.21981 150.31C5.21981 152.259 5.91386 152.927 7.69584 152.717C17.8813 151.476 28.123 150.922 38.3647 150.826C52.1703 150.692 65.9948 150.559 79.8004 150.692C88.4852 150.788 97.1513 151.323 105.836 151.762C108.95 151.915 112.064 152.354 115.159 152.698C117.091 152.908 117.747 152.393 117.747 150.482C117.766 145.764 117.71 141.065 117.785 136.346C117.804 135.009 117.166 134.245 116.134 133.882C113.546 132.984 110.957 131.914 108.275 131.494C102.291 130.539 96.2697 129.66 90.2484 129.259C80.5882 128.629 70.8905 128.399 61.1928 127.998V127.979ZM58.5292 143.548C56.5784 144.637 54.4775 144.217 52.5267 144.981C54.4588 145.707 56.6159 145.382 58.6042 146.719C58.1353 146.91 57.9477 147.025 57.7226 147.063C55.1903 147.445 52.658 147.961 50.1257 148.152C44.7048 148.553 39.265 148.744 33.8441 149.05C28.6669 149.355 23.4898 149.699 18.3127 150.005C15.499 150.177 12.7041 150.368 9.89049 150.463C8.20229 150.521 7.5833 150.043 7.32069 148.362C6.88927 145.611 6.4203 142.822 6.30776 140.052C6.17645 136.575 7.33945 135.162 10.6596 134.455C14.5612 133.614 18.4815 132.755 22.4394 132.239C27.9541 131.513 33.4877 131.074 39.0212 130.52C45.0049 129.928 51.0074 130.138 56.9911 130.615C57.4412 130.653 57.8914 130.806 58.6417 130.959C56.6909 132.411 54.4963 132.239 52.3954 133.251C53.7085 133.366 54.7026 133.385 55.6593 133.557C56.5596 133.71 57.6101 133.385 58.6042 134.455C56.4471 135.047 54.5713 135.563 52.6768 136.079C54.5901 136.575 56.5596 136.461 58.3791 137.11C58.3791 137.282 58.3791 137.454 58.3979 137.626C56.5409 138.104 54.6651 138.562 52.8081 139.04C54.7026 139.67 56.6534 139.441 58.3791 140.759C56.6534 141.141 54.909 141.542 52.9769 141.982C54.7964 142.879 56.8222 142.344 58.5292 143.567V143.548ZM91.1676 142.001C93.0246 140.587 95.1067 141.37 96.8512 140.472C95.0504 139.689 93.0621 139.957 91.2801 138.677C93.1746 137.932 94.9566 138.008 96.7011 137.473C94.9566 136.977 93.2122 136.48 91.4677 135.983C91.4677 135.83 91.4864 135.678 91.5052 135.506C93.1559 134.894 94.9942 135.124 97.0012 134.703C95.1067 133.729 93.0434 133.92 91.1676 132.468C92.143 132.315 92.6682 132.201 93.2122 132.144C97.9203 131.59 102.553 131.952 107.168 133.022C109.288 133.519 111.482 133.729 113.621 134.226C115.928 134.761 116.472 135.62 116.359 138.008C116.303 139.097 116.265 140.167 116.247 141.256C116.209 143.357 116.247 145.458 116.134 147.56C116.022 149.776 115.177 150.501 113.02 150.387C111.651 150.31 110.282 150.234 108.912 150.1C103.698 149.584 98.4831 149.069 93.2684 148.515C92.6869 148.457 92.1242 148.228 91.2051 147.98C93.0808 146.738 95.0504 147.006 96.9262 146.261C95.0317 145.496 93.0809 145.936 91.5427 144.503C93.2309 144.159 94.9191 143.834 96.9637 143.414C94.9191 142.918 93.2122 142.497 91.1863 142.02L91.1676 142.001Z" fill="white"/>
<path d="M69.6519 468.489C73.2908 471.832 74.1724 475.385 72.1841 478.843C71.9778 478.098 71.809 477.486 71.6402 476.856C70.8336 473.876 69.1454 471.488 66.7632 469.578C65.9941 468.966 65.1875 468.661 64.1746 468.718C60.4231 468.909 56.6903 468.794 52.9763 468.145C51.9634 467.973 51.4757 468.527 50.9317 469.138C44.9105 475.824 46.3548 486.484 53.9704 491.298C60.0667 495.156 67.9824 493.838 72.5593 488.165C77.0799 482.587 76.8736 474.411 72.0904 469.119C71.4151 468.381 70.596 468.164 69.6331 468.47L69.6519 468.489ZM50.3877 472.424C50.3502 474.755 50.1814 477.085 51.1568 479.492C51.3443 478.174 51.5132 477.066 51.682 475.958C52.5636 477.696 52.8262 479.626 54.1955 481.192C54.1017 479.912 54.0267 478.785 53.9142 477.257C55.5648 479.014 56.8216 480.485 58.2284 481.823C59.6728 483.198 61.2109 484.44 62.9366 485.93C61.9612 486.006 61.2296 486.083 60.2542 486.159C62.3363 487.382 64.456 487.133 66.8757 487.267C66.2942 487.649 66.0504 487.821 65.7878 487.974C65.5439 488.127 65.3001 488.26 65.0562 488.394C68.245 488.49 70.6648 487.038 72.5781 484.573C71.5839 488.05 69.1266 489.96 65.9191 490.858C58.3222 493.017 50.5378 487.993 49.206 480.065C48.7558 477.41 48.9621 474.793 50.3877 472.405V472.424Z" fill="white"/>
<path d="M29.3994 446.139C29.0805 445.776 28.7804 445.432 28.4615 445.069C28.4053 445.126 28.3302 445.164 28.274 445.222C28.5553 445.585 28.8554 445.948 29.1368 446.33C29.2118 446.272 29.3056 446.196 29.3807 446.139H29.3994Z" fill="white"/>
<path d="M33.7695 450.437C33.3756 450.093 32.9817 449.768 32.5878 449.424C32.5315 449.5 32.4752 449.577 32.419 449.653C32.8129 449.997 33.2068 450.322 33.6007 450.666C33.657 450.589 33.7133 450.532 33.7695 450.456V450.437Z" fill="white"/>
<path d="M42.6597 456.951C42.2096 456.569 41.7594 456.206 41.3092 455.823C41.2342 455.938 41.1779 456.053 41.1029 456.167C41.6281 456.416 42.1533 456.664 42.6973 456.893L42.6597 456.931V456.951Z" fill="white"/>
<path d="M19.3073 194.763C17.8817 193.712 17.0188 192.738 17.0001 191.076C16.9813 186.3 16.85 181.525 16.7937 176.749C16.775 174.648 16.7938 172.546 16.5499 170.464C16.4374 177.169 16.3248 183.894 16.2123 190.847C14.7116 189.911 14.2615 188.746 14.2427 187.294C14.2052 183.531 14.1677 179.786 14.1114 176.023C14.0927 174.266 14.0176 172.527 13.7925 170.789C11.7855 243.705 12.8171 316.621 14.1489 389.537C14.299 389.537 14.449 389.537 14.5991 389.537V378.686C14.7304 378.686 14.8805 378.686 15.0118 378.667C16.2873 381.303 17.394 383.978 16.9251 387.053C17.0001 386.289 17.0939 385.506 17.1689 384.742C19.176 386.671 20.2264 389.116 22.0272 391.007C23.8654 392.918 25.5349 395 27.3919 396.872C29.2676 398.744 31.2559 400.483 33.263 402.202C35.2701 403.921 37.3522 405.526 39.3593 407.379C31.6686 407.78 23.9779 407.436 16.3248 407.78C46.2246 411.276 76.1619 411.505 106.137 408.41C105.293 408.353 104.467 408.238 103.623 408.219C99.065 408.143 94.5069 408.066 89.93 408.028C89.0859 408.028 88.3731 407.875 87.6978 407.302C78.6566 399.394 68.7338 392.765 58.8485 386.041C51.3642 380.959 43.8986 375.84 36.5081 370.586C31.3685 366.938 26.5665 362.869 22.0647 358.437C21.2393 357.635 20.8454 356.832 20.8454 355.61C20.958 341.283 21.0142 326.955 21.0705 312.628C21.0705 311.94 21.0705 311.253 21.0705 310.278C21.5394 310.584 21.8208 310.68 21.9896 310.89C27.8983 318.092 35.0262 323.899 42.5293 329.209C50.8014 335.055 59.2237 340.671 67.5708 346.364C76.5183 352.458 85.3719 358.666 93.4377 365.944C97.7144 369.784 101.672 373.929 105.218 378.495C106.024 379.546 106.474 380.635 106.437 381.972C106.381 384.245 106.437 386.518 106.437 388.792C106.568 388.792 106.681 388.792 106.812 388.792V381.208C108.2 382.545 109.082 383.691 109.082 385.315C109.082 387.034 109.082 388.753 109.401 390.473C109.569 383.557 109.757 376.623 109.926 369.708C110.62 341.703 110.676 313.679 110.582 285.674C110.507 266.838 110.301 247.984 110.076 229.148C109.888 214.248 109.607 199.367 109.325 184.467C109.232 179.06 109.063 173.654 108.781 168.248C108.575 176.902 108.369 185.555 108.162 194.247C107.168 193.178 106.493 191.305 106.474 189.433C106.418 184.409 106.381 179.366 106.324 174.342C106.324 173.635 106.324 172.948 106.137 172.241C105.968 177.494 105.799 182.747 105.611 188.478C104.186 186.186 103.06 184.199 101.785 182.308C100.491 180.436 99.1213 178.621 97.6582 176.864C96.1576 175.068 94.5632 173.349 92.9312 171.706C91.2993 170.044 89.5736 168.458 87.8292 166.911C86.141 165.402 84.3777 163.969 82.6145 162.536C80.8138 161.085 78.9755 159.671 77.231 157.914H106.493C106.493 157.78 106.493 157.665 106.493 157.531C76.7996 154.399 47.0499 153.826 17.2627 156.213C20.2639 156.347 23.2464 156.519 26.2476 156.615C27.1668 156.634 27.9171 156.882 28.6111 157.531C35.5327 164.026 43.2234 169.49 51.0078 174.839C60.7055 181.487 70.4595 188.039 80.0635 194.82C87.3602 199.978 94.2255 205.728 100.322 212.357C101.729 213.885 103.004 215.547 104.411 217.094C105.293 218.069 105.461 219.158 105.461 220.418C105.405 230.104 105.386 239.77 105.368 249.455C105.368 254.995 105.386 260.534 105.386 266.074C105.386 266.552 105.311 267.029 105.255 267.851C104.899 267.392 104.73 267.22 104.617 267.029C100.566 259.56 94.9383 253.466 88.7295 247.869C81.489 241.374 73.6108 235.739 65.6013 230.295C57.2916 224.621 48.9257 219.043 40.6723 213.293C34.1634 208.766 27.9546 203.837 22.2335 198.278C20.8454 196.922 20.0951 195.565 20.1326 193.502C20.2639 186.912 20.1889 180.302 19.9451 173.693C19.3073 180.627 19.5324 187.58 19.3073 194.801V194.763ZM20.6579 229.32C21.0518 229.626 21.2393 229.721 21.3519 229.855C26.3602 236.236 32.3251 241.565 38.834 246.226C48.1379 252.893 57.5917 259.312 67.0268 265.788C75.3365 271.48 83.5899 277.211 91.243 283.802C96.0638 287.966 100.584 292.436 104.58 297.46C105.33 298.396 105.686 299.352 105.668 300.593C105.63 304.605 105.668 308.617 105.705 312.628C105.818 324.147 105.949 335.666 106.062 347.185C106.062 347.835 106.024 348.465 106.005 349.115C104.711 347.415 103.773 345.695 102.742 344.052C98.9712 338.054 94.1692 332.954 88.9546 328.254C80.7387 320.842 71.6788 314.615 62.5813 308.406C53.9715 302.523 45.3242 296.658 36.8082 290.66C31.6123 286.992 26.7541 282.885 22.196 278.415C21.3144 277.555 20.8829 276.676 20.9392 275.416C21.033 272.932 20.9392 270.449 20.9392 267.965C20.8454 258.108 20.7329 248.232 20.6579 238.375C20.6391 235.471 20.6579 232.549 20.6579 229.339V229.32ZM19.795 355.686C18.4257 354.712 17.7316 353.852 17.7879 352.4C17.8817 350.108 17.8442 347.816 17.863 345.542C17.9005 332.896 17.9192 320.25 17.9755 307.585C17.9755 307.012 17.7317 306.343 18.2756 305.808C19.251 306.63 19.4011 307.661 19.4198 308.769C19.5511 323.651 19.6824 338.513 19.8137 353.394C19.8137 354.062 19.8137 354.731 19.8137 355.686H19.795ZM17.5441 224.506C18.6883 225.729 19.0822 226.818 19.0822 228.155C19.0634 243.227 19.0822 258.319 19.0822 273.391C19.0822 273.735 19.0072 274.078 18.9509 274.556C17.8254 274.021 17.8442 273.142 17.8442 272.245C17.7129 257.039 17.5628 241.833 17.4315 226.627C17.4315 226.035 17.4878 225.423 17.5441 224.487V224.506ZM15.1056 218.718C15.8371 219.998 15.9872 221.182 15.9872 222.462C15.9872 237.917 15.9872 253.39 15.9872 268.844C15.9872 269.36 15.9309 269.895 15.8934 270.755C15.3869 269.322 14.7492 220.877 15.1243 218.718H15.1056ZM16.5874 351.732C15.6495 351.216 15.3119 350.681 15.2744 349.936C15.2556 349.42 15.2744 348.924 15.2744 348.408C15.3494 340.385 15.4245 332.361 15.4995 324.357C15.5558 317.289 15.5745 310.221 15.6308 303.172C15.6308 302.484 15.6308 301.816 15.6308 301.128C15.7808 301.128 15.9309 301.128 16.0622 301.128C16.4186 317.92 16.4186 334.711 16.6062 351.751L16.5874 351.732ZM107.581 302.561C107.694 302.58 107.806 302.599 107.919 302.618C108.162 320.479 108.406 338.341 108.65 356.202C107.694 354.674 107.243 353.088 107.262 351.331C107.356 340.518 107.431 329.725 107.487 318.913C107.506 314.08 107.487 309.247 107.506 304.414C107.506 303.803 107.562 303.172 107.581 302.561ZM107.656 272.015C107.562 272.015 107.45 271.977 107.356 271.977C107.206 255.052 107.056 238.127 106.887 220.877C107.956 221.717 107.881 222.539 107.881 223.36C107.806 228.652 107.75 233.924 107.712 239.216C107.675 249.474 107.675 259.713 107.656 269.971C107.656 270.659 107.656 271.347 107.656 272.034V272.015Z" fill="black"/>
<path d="M31.0875 51.1279C30.8249 49.7716 30.431 48.4153 30.3559 47.0399C29.6994 36.9918 32.3442 27.8988 38.3092 19.8564C38.5155 19.5699 38.7031 19.2642 38.7781 18.8631C36.9399 20.1239 35.6831 21.9769 34.1262 23.5433C35.927 19.9328 38.6656 17.0865 41.4042 14.2211C36.8086 17.0865 33.2634 20.9835 30.4872 25.6255C26.1354 32.9037 24.5973 40.8315 25.4789 49.2558C27.1108 64.9202 39.5284 78.8272 54.0469 81.1195C53.5404 80.8903 53.0527 80.6611 52.5463 80.4509C49.3387 79.1328 46.3187 77.49 43.5613 75.3695C43.0924 75.0066 42.736 74.5099 42.3421 74.0705C41.9107 73.8413 41.498 73.6312 41.0666 73.4019C41.1416 73.2873 41.2354 73.1727 41.3104 73.039C41.6481 73.3828 41.9669 73.7458 42.3046 74.0897C42.8485 74.3571 43.43 74.6054 43.9365 74.9302C46.6376 76.6685 49.4888 78.0631 52.6776 78.789C52.4337 78.617 52.1899 78.4451 51.9273 78.2923C51.6647 78.1395 51.3645 78.0057 51.1019 77.8529C43.2049 73.6312 37.3525 67.4036 33.5447 59.1894C33.2634 58.5781 33.1133 57.8713 32.907 57.2218L32.982 57.2982C31.9878 55.8464 31.6315 54.1653 31.4439 52.446C31.3313 51.9876 31.2375 51.5482 31.125 51.0897L31.0875 51.1279Z" fill="black"/>
<path d="M31.0861 51.128C31.1986 51.5865 31.2924 52.0258 31.4049 52.4843C31.9114 54.1081 32.4366 55.7127 32.9431 57.3365L32.868 57.26C33.1869 57.7758 33.5433 58.2725 33.8059 58.8265C37.0698 65.4743 41.8905 70.5366 48.3994 73.8987C48.8308 74.1279 49.281 74.2808 49.8438 74.3572C44.4978 70.2118 40.0897 65.3024 37.2011 59.0748C39.7709 62.819 42.7346 66.1429 46.9926 68.1105C46.1672 67.079 45.3231 66.0665 44.5165 65.0158C43.7287 63.9461 42.9597 62.8763 42.2281 61.7492C41.4966 60.6031 40.8401 59.4187 40.3711 58.1006C41.309 58.8647 42.2281 59.6288 43.166 60.3929C43.2786 60.2974 43.3723 60.221 43.4849 60.1255C41.7217 55.216 39.4707 50.5167 36.7509 45.932C36.6946 46.8299 36.6196 47.7086 36.5633 48.6064C35.3253 46.1613 35.0627 43.4486 34.4249 40.8124C33.5058 43.5824 33.6746 46.4287 34.0123 49.275C33.8997 49.275 33.7684 49.275 33.6559 49.2941C33.412 47.0973 33.0368 44.9005 32.9806 42.6845C32.9243 40.4113 33.0744 38.0998 33.3557 35.8457C33.6371 33.5915 34.2186 31.3756 34.7251 28.7776C34.3124 29.4653 34.031 29.8282 33.8622 30.2485C31.1798 36.094 30.0919 42.1878 30.9172 48.6064C31.0298 49.4279 31.0298 50.2493 31.0673 51.0898L31.0861 51.128Z" fill="black"/>
<path d="M99.1024 55.006C105.518 32.732 90.5302 10.9929 69.6528 8.43311C90.5114 16.762 100.265 32.1589 99.1024 55.006Z" fill="black"/>
<path d="M66.4078 81.8074C77.4749 82.667 92.7061 72.1986 95.4072 62.0358C93.5502 64.0034 91.7682 65.9137 89.9675 67.8049C89.8737 67.7476 89.7799 67.6903 89.6861 67.6139C89.93 67.0981 90.1926 66.5823 90.6053 65.7418C89.9863 66.0856 89.6299 66.2385 89.311 66.4677C84.0025 70.2692 78.6754 74.0516 73.3857 77.8722C72.898 78.2351 72.1102 78.3879 72.1477 79.3431C72.1477 79.5532 71.4724 79.8398 71.0785 79.9926C69.5216 80.623 67.9647 81.1961 66.3891 81.8074H66.4078Z" fill="black"/>
<path d="M58.3787 433.416C56.503 432.862 54.6272 432.308 52.7702 431.754C52.7702 431.677 52.7702 431.601 52.7702 431.524C54.6272 431.333 56.4655 431.161 58.7539 430.932C56.8406 429.289 54.7585 429.633 52.9578 428.755C53.8019 428.067 54.7585 428.392 55.6214 428.239C56.5217 428.067 57.4221 427.933 58.7351 427.723C56.7281 426.214 54.6272 426.519 52.4325 425.622C54.646 425.278 56.4842 424.991 58.3412 424.705C56.7843 423.138 54.721 423.539 52.8827 422.718C54.7398 422.049 56.7281 422.355 58.5851 421.266C56.7093 420.158 54.6835 420.578 52.5076 419.7C53.8206 419.451 54.7397 419.318 55.6589 419.108C56.5968 418.897 57.5159 418.611 58.4163 418C58.0223 417.866 57.6284 417.637 57.2345 417.598C54.1958 417.216 51.1758 416.72 48.1183 416.529C38.2705 415.898 28.4227 415.382 18.5562 414.829C15.9301 414.676 13.3228 414.523 10.6967 414.37C8.10811 414.217 7.52663 414.599 7.15147 417.121C6.77632 419.623 6.38242 422.164 6.28864 424.686C6.17609 428.239 7.37658 429.691 10.7717 430.416C18.9688 432.155 27.2035 433.588 35.5881 434.065C38.2705 434.218 40.9529 434.562 43.6352 434.562C48.0058 434.562 52.3575 434.409 56.7281 434.275C57.272 434.275 57.7973 434.065 58.3412 433.951C58.3412 433.779 58.36 433.607 58.3787 433.416Z" fill="black"/>
<path d="M91.2992 416.892C93.1375 418.076 95.1071 417.866 96.9078 418.668C96.0074 418.821 95.1071 418.955 94.2067 419.127C93.3063 419.299 92.4247 419.49 91.5243 419.872C92.9687 421.018 94.7694 420.77 96.739 421.381C94.8069 422.145 92.9874 421.954 91.2805 423.005C93.1375 423.998 95.0133 423.616 96.8515 424.208C95.1258 425.202 93.0437 424.8 91.0929 426.252C93.25 426.558 94.9758 426.825 96.7015 427.074C96.7015 427.15 96.7015 427.246 96.7015 427.322C94.9758 427.8 93.2313 428.277 91.5056 428.755C93.1187 429.996 94.9382 429.633 96.9453 429.958C95.1071 431.104 93.0062 430.818 91.243 432.231C91.9182 432.384 92.2934 432.499 92.6873 432.556C97.7707 433.263 102.779 432.747 107.75 431.639C109.569 431.238 111.445 431.028 113.283 430.627C115.984 430.035 116.453 429.29 116.322 426.539C116.209 423.998 116.209 421.457 116.153 418.898C116.153 418.267 116.153 417.618 116.097 416.987C115.891 415.039 115.215 414.332 113.302 414.466C107.825 414.848 102.348 415.325 96.8703 415.822C95.4447 415.956 94.0191 416.185 92.6123 416.414C92.2184 416.472 91.8432 416.682 91.2617 416.892H91.2992Z" fill="black"/>
<path d="M58.5496 143.548C56.8426 142.325 54.8168 142.86 52.9973 141.962C54.9481 141.523 56.6738 141.122 58.3995 140.74C56.6738 139.422 54.723 139.651 52.8285 139.021C54.6855 138.543 56.5612 138.084 58.4183 137.607C58.4183 137.435 58.4183 137.263 58.3995 137.091C56.58 136.442 54.6104 136.556 52.6971 136.06C54.5917 135.544 56.4862 135.028 58.6246 134.436C57.6117 133.366 56.5613 133.691 55.6796 133.538C54.723 133.366 53.7288 133.347 52.4158 133.232C54.5167 132.22 56.7113 132.373 58.6621 130.94C57.9118 130.787 57.4804 130.634 57.0114 130.596C51.0277 130.119 45.0253 129.908 39.0415 130.501C33.508 131.055 27.9558 131.494 22.4598 132.22C18.5019 132.736 14.5815 133.614 10.6799 134.436C7.35982 135.143 6.19683 136.556 6.32813 140.033C6.44068 142.822 6.90963 145.592 7.34106 148.343C7.60367 150.043 8.24142 150.501 9.91085 150.444C12.7245 150.349 15.5194 150.158 18.3331 149.986C23.5102 149.68 28.6873 149.317 33.8644 149.03C39.2854 148.725 44.7251 148.515 50.1461 148.133C52.6971 147.942 55.2107 147.426 57.743 147.044C57.9681 147.006 58.1556 146.891 58.6246 146.7C56.6363 145.363 54.4792 145.707 52.5471 144.962C54.4979 144.197 56.5988 144.599 58.5496 143.529V143.548Z" fill="black"/>
<path d="M91.1869 142.001C93.2127 142.497 94.9384 142.899 96.9642 143.395C94.9197 143.796 93.2315 144.14 91.5433 144.484C93.0814 145.917 95.0322 145.478 96.9267 146.242C95.0509 146.987 93.0814 146.719 91.2056 147.961C92.106 148.209 92.6875 148.438 93.269 148.496C98.4836 149.05 103.698 149.566 108.913 150.081C110.282 150.215 111.652 150.311 113.021 150.368C115.178 150.482 116.022 149.737 116.135 147.541C116.247 145.439 116.21 143.338 116.247 141.237C116.266 140.148 116.303 139.078 116.36 137.989C116.491 135.601 115.947 134.723 113.621 134.207C111.501 133.71 109.307 133.5 107.168 133.003C102.554 131.934 97.9209 131.59 93.2127 132.125C92.6687 132.182 92.1435 132.296 91.1681 132.449C93.0439 133.92 95.0885 133.71 97.0018 134.684C94.9759 135.105 93.1564 134.875 91.5057 135.487C91.5057 135.64 91.487 135.792 91.4683 135.964C93.2127 136.461 94.9572 136.958 96.7016 137.454C94.9572 137.989 93.1752 137.894 91.2807 138.658C93.0626 139.938 95.051 139.67 96.8517 140.453C95.1072 141.351 93.0439 140.568 91.1681 141.982L91.1869 142.001Z" fill="black"/>
<path d="M50.3878 472.424C48.9622 474.812 48.7558 477.429 49.206 480.084C50.5378 488.012 58.3223 493.036 65.9191 490.877C69.1455 489.96 71.584 488.069 72.5781 484.592C70.6648 487.057 68.2639 488.489 65.0563 488.413C65.3001 488.279 65.544 488.146 65.7878 487.993C66.0317 487.84 66.2756 487.668 66.8758 487.286C64.4561 487.171 62.3364 487.401 60.2543 486.178C61.2297 486.102 61.9613 486.025 62.9367 485.949C61.2297 484.459 59.6728 483.217 58.2285 481.842C56.8404 480.504 55.5649 479.033 53.9142 477.276C54.0268 478.804 54.1018 479.931 54.1956 481.211C52.8263 479.645 52.5637 477.715 51.6821 475.977C51.5132 477.085 51.3632 478.193 51.1568 479.511C50.2002 477.104 50.3503 474.774 50.3878 472.443V472.424Z" fill="black"/>
<path d="M20.6587 229.339C20.6587 232.549 20.64 235.452 20.6587 238.375C20.7525 248.232 20.8463 258.108 20.9401 267.965C20.9588 270.449 21.0339 272.932 20.9401 275.415C20.9026 276.676 21.334 277.555 22.1968 278.415C26.755 282.885 31.6132 286.992 36.8091 290.66C45.3438 296.677 53.9724 302.523 62.5821 308.406C71.6609 314.615 80.7396 320.861 88.9555 328.254C94.1701 332.954 98.9721 338.054 102.742 344.052C103.774 345.695 104.712 347.434 106.006 349.115C106.006 348.465 106.062 347.835 106.062 347.185C105.95 335.666 105.819 324.147 105.706 312.628C105.669 308.616 105.612 304.605 105.669 300.593C105.669 299.351 105.312 298.415 104.581 297.46C100.585 292.436 96.0834 287.966 91.2439 283.802C83.5908 277.211 75.3374 271.48 67.0277 265.788C57.5926 259.331 48.12 252.893 38.8349 246.226C32.326 241.565 26.361 236.216 21.3527 229.855C21.2402 229.721 21.0714 229.626 20.6587 229.32V229.339Z" fill="white"/>
<path d="M17.5439 224.506C17.4876 225.442 17.4126 226.054 17.4314 226.646C17.5627 241.852 17.7127 257.058 17.844 272.264C17.844 273.161 17.8253 274.04 18.9507 274.575C19.007 274.097 19.082 273.754 19.082 273.41C19.082 258.338 19.0633 243.246 19.082 228.174C19.082 226.837 18.6881 225.748 17.5439 224.525V224.506Z" fill="white"/>
<path d="M15.1078 218.718C14.7327 220.876 15.3705 269.302 15.8769 270.754C15.9332 269.894 15.9707 269.379 15.9707 268.844C15.9707 253.389 15.9707 237.916 15.9707 222.462C15.9707 221.182 15.8019 219.998 15.0891 218.718H15.1078Z" fill="white"/>
<path d="M16.5693 351.751C16.3818 334.711 16.3818 317.919 16.0254 301.128C15.8753 301.128 15.7252 301.128 15.5939 301.128C15.5939 301.816 15.5939 302.484 15.5939 303.172C15.5564 310.24 15.5189 317.308 15.4626 324.357C15.4064 332.38 15.3126 340.404 15.2375 348.408C15.2375 348.923 15.2375 349.42 15.2375 349.936C15.275 350.681 15.6127 351.216 16.5506 351.732L16.5693 351.751Z" fill="white"/>
<path d="M107.56 302.58C107.541 303.191 107.485 303.822 107.485 304.433C107.485 309.266 107.485 314.099 107.466 318.932C107.41 329.744 107.335 340.538 107.241 351.35C107.241 353.107 107.672 354.693 108.629 356.221C108.385 338.36 108.141 320.499 107.897 302.637C107.785 302.618 107.672 302.599 107.56 302.58Z" fill="white"/>
<path d="M107.637 272.034C107.637 271.347 107.637 270.659 107.637 269.971C107.637 259.713 107.656 249.474 107.693 239.216C107.712 233.924 107.787 228.652 107.862 223.36C107.862 222.539 107.956 221.717 106.868 220.877C107.018 238.127 107.187 255.052 107.337 271.977C107.431 271.977 107.543 272.015 107.637 272.015V272.034Z" fill="white"/>
<path d="M32.9453 57.3366C32.4389 55.7128 31.9137 54.1082 31.4072 52.4844C31.5948 54.2037 31.9512 55.8656 32.9453 57.3366Z" fill="white"/>
<path d="M19.7949 355.686C19.7949 354.731 19.7949 354.062 19.7949 353.394C19.6636 338.512 19.5135 323.65 19.401 308.769C19.401 307.661 19.2322 306.63 18.2568 305.808C17.7128 306.343 17.9567 307.012 17.9567 307.585C17.9004 320.231 17.8816 332.877 17.8441 345.542C17.8441 347.835 17.8629 350.127 17.7691 352.4C17.7128 353.852 18.4069 354.731 19.7762 355.686H19.7949Z" fill="white"/>
<path d="M42.2848 74.128C41.9471 73.7841 41.6283 73.4212 41.2906 73.0773C41.2156 73.1919 41.1218 73.3066 41.0468 73.4403C41.4782 73.6695 41.8908 73.8797 42.3223 74.1089L42.2848 74.1471V74.128Z" fill="white"/>
</svg>
